<svg width="25" height="24" viewBox="0 0 25 24" fill="none" xmlns="http://www.w3.org/2000/svg">
<g clip-path="url(#clip0_47:157)">
<path d="M12.5733 5C14.1901 5 15.6746 5.55353 16.8596 6.47406L20.4968 3.00409C18.3821 1.13995 15.614 0 12.5733 0C7.9657 0 3.96997 2.59991 1.95911 6.40985L6.00354 9.60278C6.98328 6.91937 9.55078 5 12.5733 5Z" fill="#FEFEFE"/>
<path d="M24.4694 13.5018C24.5319 13.0102 24.5734 12.5087 24.5734 12C24.5734 11.1422 24.4797 10.3068 24.3086 9.5H12.5734V14.5H19.0596C18.5349 15.8638 17.6006 17.0178 16.4114 17.8195L20.4708 21.0243C22.6227 19.1354 24.0953 16.4904 24.4694 13.5018Z" fill="#FEFEFE"/>
<path d="M5.57336 12C5.57336 11.1566 5.73023 10.3516 6.0036 9.60278L1.95917 6.40985C1.0777 8.08002 0.573364 9.98016 0.573364 12C0.573364 13.9973 1.06842 15.8763 1.93158 17.533L5.98114 14.3359C5.7218 13.6044 5.57336 12.8204 5.57336 12Z" fill="#FEFEFE"/>
<path d="M12.5733 19C9.52777 19 6.94373 17.0515 5.98108 14.3359L1.93152 17.533C3.93256 21.3735 7.94312 24 12.5733 24C15.6011 24 18.3621 22.8752 20.4708 21.0243L16.4113 17.8195C15.3145 18.5589 14.0017 19 12.5733 19Z" fill="#FEFEFE"/>
<path opacity="0.1" d="M12.5734 23.75C9.04175 23.75 5.86615 22.2928 3.62097 19.9713C5.81879 22.4378 9.00989 24 12.5734 24C16.104 24 19.2687 22.4686 21.4615 20.0408C19.223 22.3246 16.0715 23.75 12.5734 23.75Z" fill="#FEFEFE"/>
<path opacity="0.1" d="M12.5734 14.25V14.5H19.0596L19.1609 14.25H12.5734Z" fill="#FEFEFE"/>
<path d="M24.5678 12.147C24.5686 12.0978 24.5734 12.0494 24.5734 12C24.5734 11.986 24.5712 11.9725 24.5711 11.9586C24.5704 12.0215 24.5673 12.0838 24.5678 12.147Z" fill="#E6E6E6"/>
<path opacity="0.2" d="M12.5734 9.5V9.75H24.3589C24.3432 9.66748 24.326 9.58191 24.3086 9.5H12.5734Z" fill="#FEFEFE"/>
<path d="M24.3086 9.5H12.5734V14.5H19.0596C18.0509 17.1216 15.5505 19 12.5734 19C8.7074 19 5.57336 15.866 5.57336 12C5.57336 8.13397 8.7074 5 12.5734 5C13.9752 5 15.2673 5.43066 16.3619 6.14069C16.5294 6.24957 16.7023 6.35181 16.8597 6.47406L20.4968 3.00409L20.4148 2.94098C18.3103 1.11707 15.5769 0 12.5734 0C5.94592 0 0.573364 5.37256 0.573364 12C0.573364 18.6274 5.94592 24 12.5734 24C18.691 24 23.7288 19.4188 24.4694 13.5018C24.5319 13.0102 24.5734 12.5087 24.5734 12C24.5734 11.1422 24.4797 10.3068 24.3086 9.5Z" fill="#FEFEFE"/>
<path opacity="0.1" d="M16.3619 5.89069C15.2673 5.18066 13.9752 4.75 12.5734 4.75C8.7074 4.75 5.57336 7.88397 5.57336 11.75C5.57336 11.7922 5.57393 11.8251 5.57466 11.8672C5.64211 8.05951 8.74957 5 12.5734 5C13.9752 5 15.2673 5.43066 16.3619 6.14069C16.5294 6.24957 16.7023 6.35181 16.8597 6.47406L20.4968 3.00409L16.8597 6.22406C16.7023 6.10181 16.5294 5.99957 16.3619 5.89069Z" fill="#FEFEFE"/>
<path opacity="0.2" d="M12.5734 0.25C15.5484 0.25 18.2563 1.34839 20.3527 3.1416L20.4968 3.00409L20.3868 2.90827C18.2823 1.08436 15.5769 0 12.5734 0C5.94592 0 0.573364 5.37256 0.573364 12C0.573364 12.0422 0.579224 12.0829 0.579651 12.125C0.6474 5.55585 5.9881 0.25 12.5734 0.25Z" fill="#FEFEFE"/>
</g>
<defs>
<clipPath id="clip0_47:157">
<rect width="24" height="24" fill="white" transform="translate(0.573364)"/>
</clipPath>
</defs>
</svg>
