<svg width="412" height="391" viewBox="0 0 412 391" fill="none" xmlns="http://www.w3.org/2000/svg">
<g clip-path="url(#clip0_47:118)">
<path d="M412 388.939H133.976V390.143H412V388.939Z" fill="#31333E"/>
<path d="M360.114 184.214C360.649 184.845 361.046 185.582 361.28 186.377C361.513 187.173 361.578 188.008 361.469 188.83C361.36 189.652 361.081 190.442 360.649 191.148C360.217 191.855 359.642 192.462 358.961 192.931L330.188 212.765L317.518 221.245C316.798 221.727 315.926 221.923 315.07 221.794C314.215 221.666 313.437 221.222 312.89 220.55C312.57 220.158 312.34 219.702 312.213 219.211C312.087 218.721 312.068 218.209 312.158 217.711C312.248 217.213 312.445 216.741 312.735 216.326C313.024 215.912 313.4 215.566 313.836 215.311L326.108 208.157L347.525 187.679L333.757 172.832L343.956 165.152L360.114 184.214Z" fill="#F3D0B6"/>
<path d="M292.453 370.963H285.414L281.234 312.598L299.082 312.086L292.453 370.963Z" fill="#F3D0B6"/>
<path d="M292.963 389.905C291.086 390.765 289.514 383.798 287.931 385.36C283.503 389.729 276.722 390.68 270.812 388.773L272.881 388.75C272.524 388.634 272.194 388.448 271.912 388.201C271.629 387.954 271.399 387.652 271.236 387.314C271.073 386.975 270.98 386.607 270.963 386.231C270.945 385.856 271.004 385.48 271.136 385.128C271.293 384.707 271.55 384.33 271.885 384.03C272.219 383.731 272.621 383.517 273.056 383.408L277.765 382.226L285.159 369.171L292.708 368.659C294.39 370.813 295.565 373.322 296.143 375.997C296.72 378.672 296.686 381.444 296.043 384.104C295.358 386.911 294.301 389.292 292.963 389.905Z" fill="#31333E"/>
<path d="M339.316 370.963H332.278L328.097 312.598L346.455 309.015L339.316 370.963Z" fill="#F3D0B6"/>
<path d="M339.826 389.905C337.949 390.765 336.377 383.798 334.794 385.36C330.366 389.729 323.586 390.68 317.675 388.773L319.744 388.75C319.387 388.634 319.058 388.448 318.775 388.201C318.492 387.954 318.262 387.652 318.099 387.314C317.936 386.975 317.843 386.607 317.826 386.231C317.809 385.856 317.868 385.48 317.999 385.128C318.157 384.707 318.414 384.33 318.748 384.03C319.083 383.731 319.485 383.517 319.92 383.408L324.629 382.226L332.023 369.171L340.081 368.147L340.284 368.481C341.842 371.002 342.847 373.827 343.231 376.768C343.615 379.71 343.369 382.699 342.511 385.538C341.841 387.694 340.929 389.4 339.826 389.905Z" fill="#31333E"/>
<path d="M347.297 166.472C340.824 167.377 336.343 170.935 334.518 178.035L322.621 155.98C321.915 154.579 321.737 152.969 322.117 151.446C322.498 149.923 323.412 148.588 324.693 147.687C326.053 146.731 327.725 146.332 329.368 146.574C331.011 146.815 332.499 147.678 333.529 148.985L347.297 166.472Z" fill="white"/>
<path d="M359.764 306.455C330.837 319.305 301.232 320.886 271.036 312.599C282.063 269.66 295.083 230.835 295.003 198.942L324.579 196.382L329.132 203.63C339.937 220.827 347.395 239.926 351.111 259.913L359.764 306.455Z" fill="#31333E"/>
<path d="M311.32 132.898C319.769 132.898 326.618 126.022 326.618 117.539C326.618 109.057 319.769 102.18 311.32 102.18C302.871 102.18 296.022 109.057 296.022 117.539C296.022 126.022 302.871 132.898 311.32 132.898Z" fill="#F3D0B6"/>
<path d="M328.148 144.673L309.28 145.697L306.221 128.802L321.519 126.243L328.148 144.673Z" fill="#F3D0B6"/>
<path d="M326.108 198.942L305.438 199.527L295.002 200.99C289.88 184.001 285.567 167.052 296.022 152.865L308.26 140.578L326.618 140.066L326.861 140.205C329.777 141.882 332.036 144.506 333.267 147.645C334.498 150.784 334.628 154.25 333.634 157.472C329.079 172.335 326.152 186.371 326.108 198.942Z" fill="white"/>
<path d="M294.492 246.555L293.21 264.148C293.142 265.09 292.736 265.976 292.069 266.642C291.401 267.308 290.516 267.709 289.577 267.772C289.036 267.808 288.493 267.731 287.984 267.545C287.474 267.359 287.009 267.068 286.617 266.691C286.226 266.315 285.917 265.86 285.71 265.357C285.503 264.854 285.403 264.313 285.415 263.769L285.824 246.555L298.572 197.918L299.082 168.224L313.36 167.712L312.34 202.014L294.492 246.555Z" fill="#F3D0B6"/>
<path d="M314.89 170.272C308.836 167.8 303.182 168.628 298.062 173.856L298.763 148.784C298.852 147.216 299.5 145.733 300.589 144.606C301.678 143.479 303.136 142.784 304.694 142.648C306.348 142.503 307.994 142.999 309.295 144.034C310.597 145.069 311.455 146.564 311.694 148.213L314.89 170.272Z" fill="white"/>
<path d="M343.701 185.887L328.681 179.755C339.626 150.659 311.26 129.723 296.787 106.532C297.036 99.5665 305.934 93.528 312.845 94.1951C321.006 94.983 331.974 101.004 333.502 109.092L343.701 185.887Z" fill="#EE4A34"/>
<path d="M194.189 92.9162H192.049V34.0628C192.049 29.5896 191.171 25.1602 189.466 21.0275C187.761 16.8948 185.262 13.1398 182.112 9.97674C178.961 6.81372 175.221 4.30467 171.105 2.59286C166.988 0.88105 162.577 1.85385e-06 158.121 1.52589e-05H33.9276C29.4721 5.38151e-06 25.0603 0.881061 20.944 2.59287C16.8278 4.30468 13.0876 6.81373 9.93715 9.97675C6.78668 13.1398 4.28759 16.8948 2.58257 21.0275C0.877554 25.1602 -4.91909e-06 29.5896 0 34.0628V356.937C-3.51363e-06 361.41 0.877553 365.84 2.58257 369.973C4.28759 374.105 6.78668 377.86 9.93715 381.023C13.0876 384.186 16.8278 386.695 20.944 388.407C25.0603 390.119 29.4721 391 33.9276 391H158.121C162.577 391 166.988 390.119 171.105 388.407C175.221 386.695 178.961 384.186 182.112 381.023C185.262 377.86 187.761 374.105 189.466 369.973C191.171 365.84 192.049 361.41 192.049 356.937V134.809H194.189V92.9162Z" fill="#31333E"/>
<path d="M159.49 8.86197H143.279C144.024 10.697 144.309 12.688 144.108 14.6595C143.906 16.631 143.225 18.5225 142.124 20.1674C141.023 21.8123 139.536 23.1601 137.794 24.0921C136.052 25.024 134.108 25.5115 132.134 25.5117H60.985C59.011 25.5116 57.0674 25.024 55.3253 24.0921C53.5832 23.1601 52.0961 21.8123 50.995 20.1674C49.894 18.5225 49.2127 16.631 49.0113 14.6595C48.8099 12.688 49.0945 10.697 49.84 8.86197H34.6985C31.3713 8.86196 28.0766 9.51992 25.0026 10.7983C21.9286 12.0766 19.1355 13.9504 16.7828 16.3125C14.43 18.6746 12.5638 21.4788 11.2905 24.565C10.0172 27.6513 9.36182 30.9591 9.36182 34.2996V356.7C9.36182 360.041 10.0172 363.349 11.2905 366.435C12.5637 369.521 14.43 372.325 16.7828 374.688C19.1355 377.05 21.9286 378.923 25.0026 380.202C28.0766 381.48 31.3713 382.138 34.6985 382.138H159.49C162.818 382.138 166.112 381.48 169.186 380.202C172.26 378.923 175.053 377.05 177.406 374.688C179.759 372.325 181.625 369.521 182.898 366.435C184.172 363.349 184.827 360.041 184.827 356.7V34.2996C184.827 27.5531 182.158 21.0829 177.406 16.3125C172.655 11.542 166.21 8.86196 159.49 8.86197Z" fill="white"/>
<path d="M162.914 59.2233H31.2747V172.583H162.914V59.2233Z" fill="#F3D0B6"/>
<path d="M70.3383 196.222C75.658 196.222 79.9704 191.893 79.9704 186.552C79.9704 181.211 75.658 176.881 70.3383 176.881C65.0186 176.881 60.7062 181.211 60.7062 186.552C60.7062 191.893 65.0186 196.222 70.3383 196.222Z" fill="#FE8F00"/>
<path d="M75.1548 185.746H71.1415V181.717H69.5361V185.746H65.5227V187.358H69.5361V191.387H71.1415V187.358H75.1548V185.746Z" fill="white"/>
<path d="M121.175 196.222C126.494 196.222 130.807 191.893 130.807 186.552C130.807 181.211 126.494 176.881 121.175 176.881C115.855 176.881 111.542 181.211 111.542 186.552C111.542 191.893 115.855 196.222 121.175 196.222Z" fill="#FE8F00"/>
<path d="M125.991 187.358V185.746H116.359V187.358H125.991Z" fill="white"/>
<path d="M102.004 73.361H91.601C91.2352 73.361 90.8844 73.5069 90.6258 73.7665C90.3671 74.0262 90.2218 74.3784 90.2218 74.7457V79.33C90.2218 79.6972 90.3671 80.0494 90.6258 80.3091C90.8844 80.5688 91.2352 80.7147 91.601 80.7147H93.3249V87.5835H100.28V80.7147H102.004C102.37 80.7147 102.72 80.5688 102.979 80.3091C103.238 80.0494 103.383 79.6972 103.383 79.33V74.7457C103.383 74.3784 103.238 74.0262 102.979 73.7666C102.72 73.5069 102.37 73.361 102.004 73.361Z" fill="#FE8F00"/>
<path d="M112.423 115.316C106.052 105.957 102.796 94.8128 103.119 83.4809C103.125 83.2195 103.04 82.964 102.88 82.758C102.719 82.552 102.493 82.4082 102.239 82.3508V80.37H91.2519V82.3233H91.1006C90.9525 82.3235 90.806 82.353 90.6693 82.41C90.5325 82.4671 90.4084 82.5506 90.3038 82.6559C90.1993 82.7611 90.1164 82.886 90.0599 83.0234C90.0035 83.1608 89.9745 83.308 89.9747 83.4566C89.9747 83.4841 89.9757 83.5116 89.9778 83.539C90.8433 95.6527 87.9206 106.516 81.2095 116.129C80.8233 116.681 80.626 117.345 80.6472 118.019L81.8485 155.328C81.8774 156.161 82.2253 156.949 82.8196 157.53C83.4138 158.111 84.2086 158.439 85.0379 158.446H109.888C110.727 158.439 111.53 158.103 112.126 157.511C112.722 156.918 113.064 156.116 113.08 155.273L113.543 119.049C113.556 117.72 113.166 116.418 112.423 115.316Z" fill="#31333E"/>
<path opacity="0.2" d="M99.8353 74.8547C99.8353 75.647 99.5218 76.4069 98.9638 76.9671C98.4058 77.5274 97.6489 77.8421 96.8597 77.8421C96.0706 77.8421 95.3137 77.5274 94.7557 76.9671C94.1977 76.4069 93.8842 75.647 93.8842 74.8547" fill="#31333E"/>
<path d="M108.49 127.709H105.481C105.193 125.838 104.248 124.131 102.817 122.898C101.385 121.665 99.5609 120.988 97.6747 120.988C95.7885 120.988 93.9645 121.665 92.5328 122.898C91.1011 124.131 90.1561 125.838 89.8688 127.709H86.8594C86.5392 127.709 86.2228 127.779 85.9319 127.913C85.641 128.047 85.3824 128.243 85.174 128.487C84.9655 128.731 84.812 129.018 84.7241 129.327C84.6361 129.636 84.6158 129.96 84.6645 130.278L87.9331 151.609H106.702L110.672 130.35C110.733 130.028 110.721 129.697 110.639 129.379C110.557 129.062 110.407 128.767 110.199 128.515C109.99 128.263 109.729 128.06 109.434 127.921C109.138 127.782 108.816 127.709 108.49 127.709V127.709Z" fill="#FE8F00"/>
<path d="M162.914 218.787H31.2747V332.147H162.914V218.787Z" fill="#F3D0B6"/>
<path d="M70.3383 355.786C75.658 355.786 79.9704 351.457 79.9704 346.116C79.9704 340.775 75.658 336.445 70.3383 336.445C65.0186 336.445 60.7062 340.775 60.7062 346.116C60.7062 351.457 65.0186 355.786 70.3383 355.786Z" fill="#FE8F00"/>
<path d="M75.1548 345.31H71.1415V341.281H69.5361V345.31H65.5227V346.922H69.5361V350.951H71.1415V346.922H75.1548V345.31Z" fill="white"/>
<path d="M121.175 355.786C126.494 355.786 130.807 351.457 130.807 346.116C130.807 340.775 126.494 336.445 121.175 336.445C115.855 336.445 111.542 340.775 111.542 346.116C111.542 351.457 115.855 355.786 121.175 355.786Z" fill="#FE8F00"/>
<path d="M125.991 346.922V345.31H116.359V346.922H125.991Z" fill="white"/>
<path d="M123.009 299.32L123.082 299.32C125.56 299.341 127.987 298.611 130.047 297.226C132.106 295.841 133.702 293.866 134.626 291.556C137.538 284.164 138.219 276.076 136.586 268.297C134.953 260.519 131.077 253.395 125.441 247.812C119.804 242.229 112.657 238.434 104.888 236.9C97.1196 235.365 89.073 236.159 81.7502 239.182C74.4275 242.205 68.1522 247.324 63.7058 253.901C59.2594 260.478 56.8382 268.224 56.7438 276.172C56.6494 284.121 58.886 291.922 63.175 298.603C67.464 305.285 73.6159 310.553 80.8647 313.75C83.1177 314.752 85.6196 315.046 88.0422 314.595C90.4648 314.144 92.6951 312.969 94.4407 311.223C98.1846 307.444 102.637 304.447 107.54 302.404C112.443 300.361 117.7 299.313 123.009 299.32Z" fill="white"/>
<path d="M102.277 287.054C109.638 287.054 115.605 281.063 115.605 273.673C115.605 266.283 109.638 260.292 102.277 260.292C94.9165 260.292 88.9495 266.283 88.9495 273.673C88.9495 281.063 94.9165 287.054 102.277 287.054Z" fill="#FE8F00"/>
</g>
<defs>
<clipPath id="clip0_47:118">
<rect width="412" height="391" fill="white"/>
</clipPath>
</defs>
</svg>
