<svg width="174" height="174" viewBox="0 0 174 174" fill="none" xmlns="http://www.w3.org/2000/svg">
<g clip-path="url(#clip0_346_2)">
<path d="M21.8164 16.7381C61.6256 13.2468 101.441 9.83546 141.253 6.37524C143.841 6.07782 146.533 6.93012 148.453 8.69685C150.715 10.7166 151.875 13.7551 151.922 16.7537C108.555 16.7426 65.1857 16.7737 21.8164 16.7381Z" fill="white"/>
<path d="M10.0907 31.2848C11.165 30.9297 12.308 31.0385 13.42 31.0274C18.6003 31.0274 23.7807 31.0274 28.961 31.0274C30.1484 31.0407 31.3803 30.9053 32.5056 31.3803C33.2203 31.7887 33.8373 32.3502 34.3012 33.0316L34.4299 33.1204C34.4365 33.1914 34.4521 33.3312 34.4587 33.4C35.0536 34.4476 34.9537 35.7106 34.6008 36.8203L34.5209 36.858C34.1036 37.8568 33.238 38.5826 32.2947 39.0665C31.782 39.2018 31.2649 39.3306 30.7322 39.3217C24.3733 39.3239 18.0166 39.3217 11.6577 39.3239C11.0429 39.3483 10.4547 39.1619 9.87986 38.9732C9.03423 38.4872 8.3262 37.7902 7.84901 36.9402C7.39179 35.8104 7.39623 34.5453 7.84457 33.4156C8.36393 32.4989 9.14076 31.7465 10.0907 31.2848Z" fill="white"/>
<path d="M10.0018 53.9483C10.539 53.8062 11.0827 53.6597 11.6443 53.6686C18.0121 53.6664 24.3798 53.6686 30.7454 53.6664C31.3535 53.6442 31.9351 53.8351 32.5055 54.0171C33.2201 54.4321 33.8438 54.9914 34.3033 55.6795L34.4431 55.7638C34.4453 55.8326 34.4475 55.968 34.4475 56.0368C35.0823 57.1155 34.958 58.4428 34.5408 59.5747C34.0569 60.4226 33.3555 61.1328 32.5032 61.61C31.9284 61.7965 31.3447 61.9873 30.7321 61.9629C24.371 61.9607 18.0121 61.9607 11.6509 61.9629C11.0406 61.9873 10.4613 61.7965 9.88642 61.6189C9.03635 61.1328 8.33054 60.427 7.84669 59.5769C7.39391 58.445 7.39613 57.1843 7.84669 56.0524C8.36161 55.2178 9.02081 54.3966 9.96854 54.0437L10.0018 53.9483Z" fill="white"/>
<path d="M9.87754 76.6561C10.4524 76.4718 11.0361 76.2832 11.6487 76.3054C18.0187 76.3076 24.3909 76.3054 30.7609 76.3076C31.3646 76.281 31.9373 76.4763 32.5055 76.6561C33.2224 77.0645 33.8372 77.6304 34.3033 78.314L34.4364 78.3984C34.4409 78.4694 34.4498 78.6092 34.4542 78.678C35.0601 79.7212 34.9491 80.9886 34.6007 82.0983L34.5208 82.1383C34.108 83.0616 33.3533 83.834 32.4233 84.2335L32.3812 84.3223C31.8441 84.4643 31.2981 84.6086 30.7365 84.5997C24.371 84.6019 18.0076 84.5997 11.6421 84.6019C11.0339 84.6241 10.4568 84.4332 9.8842 84.2557C8.92537 83.6808 8.03535 82.8618 7.70242 81.7609C7.34286 80.7599 7.49379 79.6702 7.84447 78.6914C8.32832 77.8435 9.03191 77.1399 9.87754 76.6561Z" fill="white"/>
<path d="M9.88647 99.2907C10.4613 99.1109 11.0428 98.9178 11.6532 98.9444C18.0165 98.9467 24.3799 98.9444 30.7432 98.9467C31.3669 98.9111 31.9684 99.0931 32.5166 99.375L32.7186 99.3817C33.4466 99.9099 34.0991 100.549 34.5408 101.339C34.9758 102.427 34.9803 103.632 34.6007 104.737L34.5208 104.777C34.1346 105.705 33.3534 106.382 32.51 106.89C31.3159 107.385 30.0108 107.217 28.7523 107.241C23.0526 107.239 17.3529 107.241 11.6532 107.239C11.0894 107.248 10.5434 107.106 10.0041 106.961L9.96193 106.873C8.42381 106.207 7.36289 104.544 7.50272 102.857C7.53157 101.319 8.58806 100.014 9.88647 99.2907Z" fill="white"/>
<path d="M117.488 112.53L117.597 112.424C121.845 116.649 126.133 120.833 130.388 125.053C131.205 125.869 131.715 126.997 131.715 128.158C131.784 130.399 129.949 132.49 127.74 132.785C126.3 133.01 124.824 132.428 123.834 131.378C119.644 127.208 115.386 123.106 111.232 118.902C113.302 116.763 115.389 114.639 117.488 112.53Z" fill="white"/>
<path d="M61.7033 125.392C65.9181 121.084 70.2284 116.865 74.4166 112.532C76.5917 114.634 78.6981 116.805 80.8599 118.918C78.3296 121.67 75.6085 124.242 73.0028 126.924C71.4092 128.519 69.8311 130.133 68.2331 131.724C67.3675 132.594 66.1467 133.109 64.9149 133.045C62.6909 132.996 60.6934 131.085 60.5025 128.879C60.3649 127.609 60.8266 126.313 61.7033 125.392Z" fill="white"/>
<path d="M9.88201 121.934C11.0783 121.435 12.3856 121.61 13.6463 121.583C19.3438 121.586 25.0413 121.583 30.7365 121.583C31.3469 121.559 31.9306 121.748 32.5033 121.93C33.3533 122.416 34.0591 123.124 34.5408 123.976C34.9758 125.064 34.9802 126.271 34.6007 127.376L34.5208 127.414C34.1346 128.344 33.3511 129.023 32.5077 129.532C31.3114 130.026 30.0041 129.853 28.7434 129.88C23.0482 129.878 17.3507 129.88 11.6532 129.88C11.0406 129.902 10.4546 129.716 9.87979 129.529C9.03193 129.045 8.32835 128.342 7.84671 127.494C7.49159 126.513 7.34288 125.419 7.70466 124.418C8.03981 123.324 8.92318 122.502 9.88201 121.934Z" fill="white"/>
<path d="M9.88199 144.573C11.0739 144.078 12.3767 144.247 13.633 144.223C19.4081 144.229 25.1855 144.211 30.9629 144.231C32.3435 144.24 33.562 145.108 34.3011 146.229L34.432 146.313C34.4387 146.384 34.452 146.524 34.4586 146.595C35.0557 147.641 34.9514 148.903 34.6007 150.013L34.5186 150.055C33.8771 151.514 32.3479 152.572 30.7321 152.517C24.9614 152.519 19.1884 152.517 13.4177 152.519C12.2325 152.506 11.0028 152.641 9.87977 152.168C9.0297 151.687 8.32833 150.979 7.8467 150.133C7.38948 148.999 7.40058 147.734 7.8467 146.597C8.33721 145.758 9.03192 145.05 9.88199 144.573Z" fill="white"/>
<path d="M21.1926 16.747C21.348 16.7448 21.661 16.7403 21.8163 16.7381C65.1856 16.7736 108.555 16.7426 151.922 16.7537C154.79 16.5717 157.768 17.2619 160.043 19.0753C162.121 20.6755 163.603 23.0371 164.123 25.6117C164.398 26.8569 164.351 28.1375 164.351 29.4049C164.351 71.5024 164.353 113.598 164.351 155.695C164.364 158.658 163.122 161.599 160.986 163.652C158.947 165.652 156.112 166.804 153.256 166.793C109.234 166.795 65.2144 166.793 21.1926 166.793C21.2259 162.82 21.1238 158.845 21.2459 154.874C24.3332 154.921 27.4184 154.876 30.5057 154.896C31.4823 154.923 32.4101 154.563 33.3644 154.406L33.3067 154.186C33.3911 154.206 33.5553 154.246 33.6374 154.266C34.037 153.984 34.4476 153.722 34.8782 153.496L34.7183 153.263L35.0735 153.442L35.0757 153.258C35.2599 153.074 35.4419 152.89 35.6217 152.705L35.8126 152.708L35.6261 152.355L35.8592 152.512C36.0878 152.082 36.3497 151.671 36.6293 151.274C36.6094 151.192 36.5694 151.025 36.5517 150.943L36.7736 150.999C36.9023 150.284 37.0999 149.585 37.2286 148.872C37.3906 147.803 36.929 146.784 36.7714 145.741L36.5472 145.803C36.5672 145.718 36.6094 145.552 36.6293 145.468C36.3497 145.068 36.0878 144.657 35.8592 144.229L35.6306 144.384L35.8192 144.018L35.4907 144.094L35.5551 143.792L35.2643 143.838L35.3176 143.548L35.0135 143.623L35.0912 143.288L34.7228 143.481L34.8804 143.246C34.4476 143.017 34.0347 142.755 33.6374 142.476C33.5531 142.498 33.3866 142.54 33.3045 142.562L33.3667 142.336C32.4123 142.178 31.4845 141.819 30.5035 141.845C27.4184 141.865 24.3332 141.821 21.2481 141.87C21.1571 138.66 21.1571 135.442 21.2481 132.233C24.3355 132.281 27.425 132.237 30.5146 132.257C31.489 132.284 32.4123 131.924 33.3644 131.769L33.3067 131.549C33.3911 131.567 33.5575 131.607 33.6397 131.625C34.0392 131.345 34.4498 131.083 34.8782 130.854L34.7183 130.621L35.0735 130.806L35.0757 130.619C35.2577 130.435 35.4419 130.251 35.6217 130.069H35.8103L35.6328 129.716L35.8614 129.876C36.0878 129.443 36.3497 129.032 36.6293 128.635C36.6094 128.553 36.5694 128.388 36.5494 128.306L36.7736 128.357C36.9046 127.645 37.0999 126.946 37.2286 126.233C37.3906 125.164 36.929 124.145 36.7736 123.104L36.5472 123.162C36.5694 123.079 36.6094 122.913 36.6316 122.829C36.3497 122.429 36.0878 122.016 35.857 121.588L35.6195 121.745L35.8237 121.379L35.4907 121.452L35.5551 121.153L35.2666 121.202L35.3154 120.911L35.0113 120.982L35.0912 120.647L34.7228 120.844L34.8782 120.609C34.4476 120.378 34.037 120.116 33.6397 119.839C33.5553 119.859 33.3889 119.901 33.3045 119.921L33.3644 119.697C32.4145 119.539 31.489 119.18 30.5146 119.206C27.4272 119.226 24.3355 119.182 21.2481 119.231C21.1571 116.021 21.1571 112.803 21.2481 109.594C24.3332 109.642 27.4206 109.598 30.5057 109.618C31.4823 109.645 32.4101 109.285 33.3622 109.13L33.309 108.908C33.3911 108.928 33.5575 108.968 33.6397 108.988C34.0392 108.706 34.4498 108.442 34.8782 108.211L34.7228 107.965L35.0757 108.173L35.0735 107.982C35.2577 107.796 35.4397 107.612 35.6239 107.427L35.8103 107.432L35.6283 107.077L35.8592 107.234C36.0878 106.804 36.3497 106.393 36.6293 105.996C36.6094 105.914 36.5694 105.747 36.5494 105.665L36.7736 105.721C36.9023 105.006 37.0999 104.307 37.2308 103.594C37.3884 102.524 36.929 101.506 36.7736 100.465L36.545 100.522C36.5672 100.44 36.6094 100.274 36.6316 100.192C36.3519 99.7901 36.0856 99.3794 35.8547 98.9489L35.6084 99.1042L35.8192 98.7535L35.6261 98.758C35.4419 98.5715 35.2555 98.3873 35.0668 98.2053L35.0757 98.0056L34.7228 98.2253L34.8782 97.9723C34.4476 97.7414 34.037 97.4751 33.6374 97.1954C33.5531 97.2176 33.3889 97.2642 33.3045 97.2864L33.3667 97.0578C32.4123 96.9025 31.4823 96.5362 30.5057 96.5673C27.4184 96.5873 24.3332 96.5429 21.2481 96.5917C21.1571 93.3823 21.1571 90.164 21.2459 86.9568C24.3288 87.0034 27.4139 86.9591 30.4968 86.979C31.4779 87.0079 32.4078 86.6483 33.3644 86.4885L33.3067 86.271C33.3911 86.2888 33.5575 86.3265 33.6397 86.3465C34.0392 86.0668 34.4498 85.8049 34.8782 85.5741L34.7206 85.3322L35.0735 85.5319V85.341C35.2577 85.159 35.4397 84.9748 35.6217 84.7906H35.8103L35.6306 84.4377L35.8614 84.5953C36.0878 84.1647 36.3497 83.7541 36.6293 83.3568C36.6094 83.2724 36.5694 83.1082 36.5494 83.0261L36.7714 83.0816C36.929 82.0406 37.3906 81.0196 37.2286 79.9521C37.0999 79.2396 36.9023 78.5404 36.7736 77.828L36.5494 77.8857C36.5783 77.7791 36.636 77.5639 36.6649 77.4573L36.3319 77.3907C36.363 77.2909 36.4296 77.0911 36.4629 76.9912L36.2121 77.0356C36.0989 76.7893 35.9901 76.5451 35.8836 76.2965L35.6239 76.4674L35.8281 76.1012L35.493 76.1811L35.5573 75.8793L35.2688 75.9214L35.311 75.6329L35.0024 75.6973L35.0957 75.3599L34.7228 75.5752L34.8804 75.331C34.4476 75.1024 34.0347 74.8383 33.6352 74.5564C33.5531 74.5808 33.3889 74.6252 33.3045 74.6474L33.3667 74.4188C32.4123 74.2612 31.4867 73.8994 30.5079 73.9283C27.4206 73.9483 24.3332 73.9039 21.2459 73.9505C21.1571 70.7433 21.1571 67.525 21.2459 64.3178C24.3355 64.3644 27.4228 64.32 30.5124 64.34C31.4867 64.3689 32.4123 64.0071 33.3644 63.8495L33.3067 63.6275C33.3911 63.6475 33.5553 63.6897 33.6374 63.7097C34.037 63.43 34.4476 63.1659 34.8782 62.9395L34.7183 62.702L35.0735 62.8884L35.0757 62.702C35.2577 62.5178 35.4419 62.3336 35.6217 62.1493L35.8126 62.1516L35.6283 61.7987L35.8592 61.9562C36.0878 61.5257 36.3497 61.1173 36.6293 60.7178C36.6094 60.6356 36.5694 60.4692 36.5517 60.3848L36.7714 60.4448C36.929 59.4016 37.3906 58.3806 37.2286 57.3108C37.0999 56.5983 36.9023 55.8992 36.7714 55.1867L36.545 55.2444C36.5672 55.1623 36.6094 54.9959 36.6316 54.9137C36.3497 54.5142 36.0878 54.1014 35.8592 53.6708L35.6195 53.8284L35.8259 53.4622L35.493 53.5399L35.5573 53.238L35.2666 53.2824L35.3132 52.9939L35.0069 53.0627L35.0934 52.7275L34.7228 52.9273L34.8782 52.6898C34.4476 52.4634 34.0347 52.1993 33.6374 51.9196C33.5553 51.9418 33.3889 51.984 33.3067 52.0062L33.3644 51.7776C32.4101 51.6222 31.4845 51.2604 30.5057 51.2893C27.4206 51.3092 24.3332 51.2649 21.2481 51.3137C21.1571 48.1043 21.1571 44.886 21.2481 41.6788C24.3355 41.7254 27.4228 41.681 30.5124 41.701C31.4867 41.7276 32.4145 41.3681 33.3667 41.2105L33.3067 40.9885C33.3889 41.0107 33.5553 41.0507 33.6374 41.0706C34.037 40.791 34.4476 40.5269 34.8804 40.2983L34.7206 40.063L35.0912 40.2605L35.0135 39.932L35.311 39.9964L35.271 39.7101L35.5551 39.7522L35.493 39.4504L35.8259 39.5303L35.615 39.1641L35.857 39.3194C36.0878 38.8889 36.3519 38.476 36.6316 38.0765C36.6094 37.9944 36.5672 37.8302 36.5472 37.748L36.7736 37.8035C36.929 36.7626 37.3884 35.7438 37.2286 34.674C37.0999 33.9593 36.9023 33.2602 36.7714 32.5455L36.5472 32.6076C36.5672 32.5255 36.6094 32.3568 36.6316 32.2725C36.3497 31.873 36.0856 31.4624 35.8547 31.0318L35.6128 31.1872L35.8259 30.8209L35.4907 30.8986L35.5551 30.5968L35.2666 30.6456L35.3154 30.3548L35.0091 30.4236L35.0912 30.0863L34.7228 30.2971L34.8804 30.053C34.4476 29.8244 34.037 29.5603 33.6374 29.2806C33.5553 29.3028 33.3889 29.345 33.3067 29.3672L33.3644 29.1385C32.4123 28.9854 31.4867 28.6214 30.5101 28.6503C27.4228 28.6702 24.3332 28.6258 21.2481 28.6747C21.1238 24.7017 21.2259 20.7222 21.1926 16.747ZM121.315 54.7362C117.906 57.9056 114.761 61.3525 111.363 64.5331C109.221 66.6882 107.09 68.8523 104.935 70.9919C103.51 72.2326 102.205 73.6642 101.39 75.3865C99.8122 78.556 99.7168 82.4246 101.222 85.6407C98.0233 88.9677 94.6984 92.1705 91.4602 95.4576C85.7804 101.151 80.0652 106.81 74.4165 112.532C70.2283 116.865 65.918 121.084 61.7032 125.392C60.8265 126.313 60.3648 127.609 60.5024 128.879C60.6933 131.085 62.6909 132.996 64.9148 133.045C66.1466 133.109 67.3674 132.594 68.233 131.724C69.831 130.133 71.4091 128.519 73.0027 126.924C75.6084 124.242 78.3295 121.67 80.8598 118.918C85.8515 113.817 90.9563 108.826 95.9924 103.767C101.04 108.846 106.153 113.86 111.156 118.98L111.232 118.902C115.387 123.106 119.644 127.208 123.834 131.378C124.824 132.428 126.3 133.009 127.74 132.785C129.949 132.49 131.784 130.399 131.715 128.158C131.715 126.997 131.205 125.869 130.388 125.053C126.133 120.833 121.845 116.649 117.597 112.424L117.488 112.53C112.448 107.481 107.376 102.46 102.367 97.3797C104.211 95.6285 105.914 93.7263 107.8 92.024C108.908 92.2193 109.973 92.6521 111.11 92.7142C114.592 93.0716 118.305 92.0417 120.827 89.5426C126.619 83.8628 132.439 78.2142 138.188 72.4856C139.521 71.549 139.581 69.3628 138.203 68.4394C137.577 67.929 136.703 68.0266 135.957 68.111C135.047 68.3995 134.452 69.2163 133.782 69.8444C132.384 71.3359 130.828 72.6632 129.416 74.1414C128.146 75.4686 126.764 76.6805 125.499 78.0122C124.848 78.6536 124.231 79.446 123.286 79.6391C121.896 79.9654 120.389 78.7779 120.456 77.3353C120.378 76.0923 121.526 75.3688 122.269 74.5631C125.374 71.3803 128.615 68.3329 131.707 65.139C132.83 63.9494 132.215 61.8009 130.69 61.2904C129.596 60.9375 128.375 61.297 127.603 62.1338C125.081 64.7195 122.453 67.1943 119.921 69.7689C118.911 70.6035 118.092 71.6444 117.064 72.4523C115.611 73.5022 113.402 72.2104 113.436 70.4703C113.376 69.2607 114.47 68.5082 115.207 67.7181C116.982 65.867 118.898 64.158 120.684 62.3136C121.976 61.0152 123.259 59.7079 124.575 58.4339C125.399 57.6482 125.501 56.2676 124.884 55.331C124.162 54.1724 122.376 53.9261 121.315 54.7362ZM54.614 71.1472C55.3642 74.6807 57.2442 77.9301 59.8366 80.4337C66.0334 86.5906 72.1837 92.7986 78.4205 98.9156C82.6709 94.6719 86.8946 90.4037 91.1694 86.1889C80.6467 75.5996 70.0263 65.1057 59.4948 54.5275C55.1956 58.7446 53.1891 65.27 54.614 71.1472Z" fill="#FEA038"/>
<path d="M121.315 54.7362C122.376 53.926 124.163 54.1724 124.884 55.331C125.501 56.2676 125.399 57.6482 124.575 58.4339C123.259 59.7079 121.976 61.0151 120.685 62.3136C118.898 64.158 116.982 65.867 115.207 67.7181C114.47 68.5082 113.376 69.2606 113.436 70.4703C113.402 72.2104 115.611 73.5021 117.065 72.4523C118.092 71.6444 118.911 70.6034 119.921 69.7689C122.454 67.1943 125.081 64.7195 127.603 62.1338C128.375 61.297 129.596 60.9375 130.69 61.2904C132.215 61.8009 132.83 63.9493 131.707 65.139C128.615 68.3329 125.374 71.3803 122.269 74.5631C121.526 75.3687 120.378 76.0923 120.456 77.3352C120.389 78.7779 121.896 79.9653 123.286 79.6391C124.231 79.446 124.848 78.6536 125.499 78.0122C126.764 76.6805 128.147 75.4686 129.416 74.1413C130.828 72.6632 132.384 71.3359 133.782 69.8444C134.452 69.2163 135.047 68.3995 135.957 68.1109C136.703 68.0266 137.577 67.9289 138.203 68.4394C139.582 69.3627 139.522 71.549 138.188 72.4856C132.439 78.2142 126.62 83.8628 120.827 89.5425C118.305 92.0417 114.592 93.0716 111.11 92.7142C109.973 92.6521 108.908 92.2193 107.8 92.024C105.914 93.7263 104.211 95.6284 102.367 97.3796C107.376 102.46 112.448 107.481 117.488 112.53C115.389 114.639 113.302 116.763 111.232 118.902L111.156 118.98C106.153 113.86 101.04 108.846 95.9925 103.767C90.9564 108.826 85.8516 113.817 80.8599 118.918C78.6981 116.805 76.5917 114.634 74.4166 112.532C80.0653 106.81 85.7805 101.151 91.4603 95.4575C94.6985 92.1704 98.0234 88.9677 101.222 85.6406C99.7168 82.4246 99.8123 78.556 101.39 75.3865C102.205 73.6642 103.51 72.2326 104.935 70.9919C107.09 68.8522 109.221 66.6882 111.363 64.5331C114.761 61.3525 117.906 57.9056 121.315 54.7362Z" fill="#31333E"/>
<path d="M54.6141 71.1472C53.1892 65.27 55.1956 58.7446 59.4948 54.5275C70.0264 65.1057 80.6468 75.5996 91.1695 86.1889C86.8947 90.4037 82.671 94.6718 78.4206 98.9156C72.1838 92.7986 66.0335 86.5906 59.8366 80.4337C57.2442 77.9301 55.3643 74.6807 54.6141 71.1472Z" fill="#31333E"/>
</g>
<defs>
<clipPath id="clip0_346_2">
<rect width="174" height="174" fill="white"/>
</clipPath>
</defs>
</svg>
