<svg width="160" height="36" viewBox="0 0 160 36" fill="none" xmlns="http://www.w3.org/2000/svg">
<path d="M5.2961 10.0181C16.1175 -0.0408176 33.837 -3.37615 46.6619 4.91302C54.3644 1.92559 63.0078 1.30541 70.9987 3.51384C79.6118 5.76764 87.1549 10.8425 93.8936 16.4997C98.2116 19.9938 102.097 24.1006 106.984 26.846C113.199 30.4234 120.735 32.1629 127.815 30.4839C132.672 29.4024 137.346 26.5737 139.767 22.1266C142.453 17.3694 141.262 10.9257 137.331 7.21218C135.608 5.49536 132.581 6.22143 131.048 4.38359C131.162 2.84828 132.861 2.19786 133.992 1.44155C137.49 -0.73662 142.142 -0.350907 145.481 1.95584C150.687 5.01133 153.055 11.5232 152.046 17.3165C151.105 23.6393 146.787 29.2133 141.072 32.0343C133.127 36.0049 123.679 37.0789 115.066 34.8705C106.051 32.6167 98.9705 26.2939 92.1331 20.3796C85.4095 14.5333 77.7146 9.23912 68.76 7.68112C62.7119 6.56934 56.3981 6.69789 50.479 8.41472C52.5355 11.4324 54.3947 15.1383 53.3323 18.8745C52.2471 22.9737 47.8609 25.53 43.7478 25.1141C39.4602 24.7737 35.3092 20.9166 35.8177 16.4241C36.0757 12.6879 38.8607 9.90467 41.5319 7.58279C32.4104 4.92814 22.4161 6.5769 13.9168 10.5173C9.80375 12.6198 5.501 15.524 4.02121 20.1224C3.14852 22.4821 3.81631 25.0233 4.57517 27.3149C2.40482 28.3057 1.00851 25.7342 0.431772 24.0477C-1.06319 18.8972 1.50936 13.4896 5.2961 10.0181ZM39.7334 19.419C40.978 22.1569 44.6053 20.6972 46.0851 18.9275C48.8929 16.6736 48.468 12.2946 45.8878 10.0408C42.7461 12.0602 38.4813 15.1459 39.7334 19.419Z" fill="#726E6D"/>
<path d="M155.073 12.6047C154.724 10.1618 153.639 7.90802 153.176 5.48782C157.501 6.30464 160.074 10.7593 159.998 14.9039C160.066 20.9392 155.665 26.0519 150.565 28.7746C150.694 27.8822 151.059 27.1107 151.658 26.4452C154.823 22.6485 155.877 17.4073 155.073 12.6047Z" fill="#726E6D"/>
<path d="M64.3133 11.5005C68.358 9.80635 72.7974 11.4627 76.4475 13.361C80.9248 15.8039 84.5977 19.4644 87.5725 23.5561C85.2883 24.2292 83.6643 21.8165 81.8582 20.7804C76.8952 16.6056 70.9685 13.1568 64.2905 13.0282C64.2981 12.6501 64.3057 11.8786 64.3133 11.5005Z" fill="#726E6D"/>
</svg>
