<svg width="160" height="36" viewBox="0 0 160 36" fill="none" xmlns="http://www.w3.org/2000/svg">
<path d="M154.704 10.0181C143.882 -0.0408176 126.163 -3.37615 113.338 4.91302C105.635 1.92559 96.9919 1.30541 89.0011 3.51384C80.388 5.76764 72.8448 10.8425 66.1061 16.4997C61.7882 19.9938 57.9028 24.1006 53.0157 26.846C46.8006 30.4234 39.265 32.1629 32.1848 30.4839C27.3281 29.4024 22.6535 26.5737 20.2327 22.1266C17.5463 17.3694 18.7377 10.9257 22.6687 7.21218C24.3913 5.49536 27.4192 6.22143 28.9521 4.38359C28.8382 2.84828 27.1384 2.19786 26.0077 1.44155C22.5093 -0.73662 17.8574 -0.350907 14.5184 1.95584C9.31261 5.01133 6.94495 11.5232 7.95424 17.3165C8.89524 23.6393 13.2132 29.2133 18.9274 32.0343C26.8728 36.0049 36.3206 37.0789 44.9338 34.8705C53.9491 32.6167 61.0293 26.2939 67.8667 20.3796C74.5902 14.5333 82.2851 9.23912 91.2397 7.68112C97.2879 6.56934 103.602 6.69789 109.521 8.41472C107.464 11.4324 105.605 15.1383 106.667 18.8745C107.753 22.9737 112.139 25.53 116.252 25.1141C120.54 24.7737 124.691 20.9166 124.182 16.4241C123.924 12.6879 121.139 9.90467 118.468 7.58279C127.589 4.92814 137.584 6.5769 146.083 10.5173C150.196 12.6198 154.499 15.524 155.979 20.1224C156.851 22.4821 156.183 25.0233 155.425 27.3149C157.595 28.3057 158.991 25.7342 159.568 24.0477C161.063 18.8972 158.49 13.4896 154.704 10.0181ZM120.266 19.419C119.022 22.1569 115.394 20.6972 113.915 18.9275C111.107 16.6736 111.532 12.2946 114.112 10.0408C117.254 12.0602 121.518 15.1459 120.266 19.419Z" fill="#726E6D"/>
<path d="M4.92666 12.6047C5.27574 10.1618 6.36092 7.90802 6.82383 5.48782C2.49829 6.30464 -0.0742534 10.7593 0.00163313 14.9039C-0.0666648 20.9392 4.33475 26.0519 9.43433 28.7746C9.30532 27.8822 8.94106 27.1107 8.34156 26.4452C5.17709 22.6485 4.12227 17.4073 4.92666 12.6047Z" fill="#726E6D"/>
<path d="M95.6865 11.5005C91.6417 9.80635 87.2024 11.4627 83.5522 13.361C79.0749 15.8039 75.402 19.4644 72.4273 23.5561C74.7115 24.2292 76.3354 21.8165 78.1415 20.7804C83.1045 16.6056 89.0312 13.1568 95.7092 13.0282C95.7016 12.6501 95.6941 11.8786 95.6865 11.5005Z" fill="#726E6D"/>
</svg>
