<?xml version="1.0" encoding="UTF-8"?>
<svg xmlns="http://www.w3.org/2000/svg" xmlns:xlink="http://www.w3.org/1999/xlink" viewBox="0 0 52 52" width="16px" height="16px">
<g id="surface11578665">
<path style=" stroke:none;fill-rule:nonzero;fill:rgb(100%,100%,100%);fill-opacity:1;" d="M 24.625 0 C 20.851562 0.0078125 21.132812 1.015625 23.125 3 L 29.5625 9.4375 L 18.5 20.5 C 16.210938 22.789062 16.210938 26.460938 18.5 28.75 L 23.375 33.5625 C 25.664062 35.84375 29.335938 35.851562 31.625 33.5625 L 42.6875 22.5625 L 49 28.875 C 51.203125 31.078125 52 31.148438 52 27.375 L 52 6.8125 C 52 -0.0625 52.070312 0 45.1875 0 Z M 9.75 10 C 4.367188 10 0 14.367188 0 19.75 L 0 42.25 C 0 47.632812 4.367188 52 9.75 52 L 32.25 52 C 37.632812 52 42 47.632812 42 42.25 L 42 29.5 L 36 35.5 L 36 42.25 C 36 44.320312 34.320312 46 32.25 46 L 9.75 46 C 7.679688 46 6 44.320312 6 42.25 L 6 19.75 C 6 17.679688 7.679688 16 9.75 16 L 16.625 16 L 22.625 10 Z M 9.75 10 "/>
</g>
</svg>
