<svg width="412" height="391" viewBox="0 0 412 391" fill="none" xmlns="http://www.w3.org/2000/svg">
<g clip-path="url(#clip0_47_118)">
<path d="M412 388.939H133.976V390.143H412V388.939Z" fill="#31333E"/>
<path d="M360.114 184.214C360.649 184.845 361.046 185.582 361.28 186.377C361.513 187.173 361.578 188.008 361.469 188.83C361.36 189.652 361.081 190.442 360.649 191.148C360.217 191.855 359.642 192.462 358.961 192.931L330.188 212.765L317.518 221.245C316.798 221.727 315.926 221.923 315.07 221.794C314.215 221.666 313.437 221.222 312.89 220.55C312.57 220.158 312.34 219.702 312.213 219.211C312.087 218.721 312.068 218.209 312.158 217.711C312.248 217.213 312.445 216.741 312.735 216.326C313.024 215.912 313.4 215.566 313.836 215.311L326.108 208.157L347.525 187.679L333.757 172.832L343.956 165.152L360.114 184.214Z" fill="#F3D0B6"/>
<path d="M292.453 370.963H285.414L281.234 312.598L299.082 312.086L292.453 370.963Z" fill="#F3D0B6"/>
<path d="M292.963 389.905C291.086 390.765 289.514 383.798 287.931 385.36C283.503 389.729 276.722 390.68 270.812 388.773L272.881 388.75C272.524 388.634 272.194 388.448 271.912 388.201C271.629 387.954 271.399 387.652 271.236 387.314C271.073 386.975 270.98 386.607 270.963 386.231C270.945 385.856 271.004 385.48 271.136 385.128C271.293 384.707 271.55 384.33 271.885 384.03C272.219 383.731 272.621 383.517 273.056 383.408L277.765 382.226L285.159 369.171L292.708 368.659C294.39 370.813 295.565 373.322 296.143 375.997C296.72 378.672 296.686 381.444 296.043 384.104C295.358 386.911 294.301 389.292 292.963 389.905Z" fill="#31333E"/>
<path d="M339.316 370.963H332.278L328.097 312.598L346.455 309.015L339.316 370.963Z" fill="#F3D0B6"/>
<path d="M339.826 389.905C337.949 390.765 336.377 383.798 334.794 385.36C330.366 389.729 323.586 390.68 317.675 388.773L319.744 388.75C319.387 388.634 319.058 388.448 318.775 388.201C318.492 387.954 318.262 387.652 318.099 387.314C317.936 386.975 317.843 386.607 317.826 386.231C317.809 385.856 317.868 385.48 317.999 385.128C318.157 384.707 318.414 384.33 318.748 384.03C319.083 383.731 319.485 383.517 319.92 383.408L324.629 382.226L332.023 369.171L340.081 368.147L340.284 368.481C341.842 371.002 342.847 373.827 343.231 376.768C343.615 379.71 343.369 382.699 342.511 385.538C341.841 387.694 340.929 389.4 339.826 389.905Z" fill="#31333E"/>
<path d="M347.297 166.472C340.824 167.377 336.343 170.935 334.518 178.035L322.621 155.98C321.915 154.579 321.737 152.969 322.117 151.446C322.498 149.923 323.412 148.588 324.693 147.687C326.053 146.731 327.725 146.332 329.368 146.574C331.011 146.815 332.499 147.678 333.529 148.985L347.297 166.472Z" fill="white"/>
<path d="M359.764 306.455C330.837 319.305 301.232 320.886 271.036 312.599C282.063 269.66 295.083 230.835 295.003 198.942L324.579 196.382L329.132 203.63C339.937 220.827 347.395 239.926 351.111 259.913L359.764 306.455Z" fill="#31333E"/>
<path d="M311.32 132.898C319.769 132.898 326.618 126.022 326.618 117.539C326.618 109.057 319.769 102.18 311.32 102.18C302.871 102.18 296.022 109.057 296.022 117.539C296.022 126.022 302.871 132.898 311.32 132.898Z" fill="#F3D0B6"/>
<path d="M328.148 144.673L309.28 145.697L306.221 128.802L321.519 126.243L328.148 144.673Z" fill="#F3D0B6"/>
<path d="M326.108 198.942L305.438 199.527L295.002 200.99C289.88 184.001 285.567 167.052 296.022 152.865L308.26 140.578L326.618 140.066L326.861 140.205C329.777 141.882 332.036 144.506 333.267 147.645C334.498 150.784 334.628 154.25 333.634 157.472C329.079 172.335 326.152 186.371 326.108 198.942Z" fill="white"/>
<path d="M294.492 246.555L293.21 264.148C293.142 265.09 292.736 265.976 292.069 266.642C291.401 267.308 290.516 267.709 289.577 267.772C289.036 267.808 288.493 267.731 287.984 267.545C287.474 267.359 287.009 267.068 286.617 266.691C286.226 266.315 285.917 265.86 285.71 265.357C285.503 264.854 285.403 264.313 285.415 263.769L285.824 246.555L298.572 197.918L299.082 168.224L313.36 167.712L312.34 202.014L294.492 246.555Z" fill="#F3D0B6"/>
<path d="M314.89 170.272C308.836 167.8 303.182 168.628 298.062 173.856L298.763 148.784C298.852 147.216 299.5 145.733 300.589 144.606C301.678 143.479 303.136 142.784 304.694 142.648C306.348 142.503 307.994 142.999 309.295 144.034C310.597 145.069 311.455 146.564 311.694 148.213L314.89 170.272Z" fill="white"/>
<path d="M343.701 185.887L328.681 179.755C339.626 150.659 311.26 129.723 296.787 106.532C297.036 99.5665 305.934 93.528 312.845 94.1951C321.006 94.983 331.974 101.004 333.502 109.092L343.701 185.887Z" fill="#EE4A34"/>
<path d="M194.189 92.9162H192.049V34.0628C192.049 29.5896 191.171 25.1602 189.466 21.0275C187.761 16.8948 185.262 13.1398 182.112 9.97674C178.961 6.81372 175.221 4.30467 171.105 2.59286C166.988 0.88105 162.577 1.85385e-06 158.121 1.52589e-05H33.9276C29.4721 5.38151e-06 25.0603 0.881061 20.944 2.59287C16.8278 4.30468 13.0876 6.81373 9.93715 9.97675C6.78668 13.1398 4.28759 16.8948 2.58257 21.0275C0.877554 25.1602 -4.91909e-06 29.5896 0 34.0628V356.937C-3.51363e-06 361.41 0.877553 365.84 2.58257 369.973C4.28759 374.105 6.78668 377.86 9.93715 381.023C13.0876 384.186 16.8278 386.695 20.944 388.407C25.0603 390.119 29.4721 391 33.9276 391H158.121C162.577 391 166.988 390.119 171.105 388.407C175.221 386.695 178.961 384.186 182.112 381.023C185.262 377.86 187.761 374.105 189.466 369.973C191.171 365.84 192.049 361.41 192.049 356.937V134.809H194.189V92.9162Z" fill="#31333E"/>
<path d="M159.49 8.86197H143.279C144.024 10.697 144.309 12.688 144.108 14.6595C143.906 16.631 143.225 18.5225 142.124 20.1674C141.023 21.8123 139.536 23.1601 137.794 24.0921C136.052 25.024 134.108 25.5115 132.134 25.5117H60.985C59.011 25.5116 57.0674 25.024 55.3253 24.0921C53.5832 23.1601 52.0961 21.8123 50.995 20.1674C49.894 18.5225 49.2127 16.631 49.0113 14.6595C48.8099 12.688 49.0945 10.697 49.84 8.86197H34.6985C31.3713 8.86196 28.0766 9.51992 25.0026 10.7983C21.9286 12.0766 19.1355 13.9504 16.7828 16.3125C14.43 18.6746 12.5638 21.4788 11.2905 24.565C10.0172 27.6513 9.36182 30.9591 9.36182 34.2996V356.7C9.36182 360.041 10.0172 363.349 11.2905 366.435C12.5637 369.521 14.43 372.325 16.7828 374.688C19.1355 377.05 21.9286 378.923 25.0026 380.202C28.0766 381.48 31.3713 382.138 34.6985 382.138H159.49C162.818 382.138 166.112 381.48 169.186 380.202C172.26 378.923 175.053 377.05 177.406 374.688C179.759 372.325 181.625 369.521 182.898 366.435C184.172 363.349 184.827 360.041 184.827 356.7V34.2996C184.827 27.5531 182.158 21.0829 177.406 16.3125C172.655 11.542 166.21 8.86196 159.49 8.86197Z" fill="#F6E3D5"/>
<rect x="22" y="42" width="152" height="152" rx="20" fill="#F7E3D5"/>
<rect x="22" y="207" width="152" height="41" rx="10" fill="#F7E3D5"/>
<rect x="22" y="257" width="152" height="41" rx="10" fill="#F7E3D5"/>
<rect x="22" y="307" width="152" height="41" rx="10" fill="#F7E3D5"/>
<path d="M57.9989 74.9296C82.0594 72.8195 106.124 70.7577 130.186 68.6663C131.75 68.4866 133.377 69.0017 134.537 70.0695C135.904 71.2902 136.606 73.1267 136.634 74.939C110.423 74.9323 84.2111 74.9511 57.9989 74.9296Z" fill="#31333E"/>
<path d="M50.912 83.7216C51.5613 83.5069 52.2522 83.5727 52.9242 83.566C56.0552 83.566 59.1862 83.566 62.3172 83.566C63.0349 83.574 63.7794 83.4922 64.4595 83.7793C64.8914 84.0261 65.2644 84.3655 65.5447 84.7773L65.6225 84.831C65.6266 84.8739 65.636 84.9584 65.64 85C65.9995 85.6332 65.9391 86.3965 65.7258 87.0672L65.6775 87.09C65.4253 87.6937 64.9022 88.1323 64.3321 88.4248C64.0222 88.5066 63.7096 88.5844 63.3877 88.579C59.5444 88.5804 55.7024 88.579 51.8591 88.5804C51.4875 88.5951 51.132 88.4824 50.7846 88.3684C50.2735 88.0746 49.8456 87.6534 49.5572 87.1396C49.2808 86.4568 49.2835 85.6922 49.5545 85.0094C49.8684 84.4554 50.3379 84.0006 50.912 83.7216Z" fill="#31333E"/>
<path d="M50.8584 97.4193C51.183 97.3334 51.5117 97.2449 51.8511 97.2502C55.6997 97.2489 59.5484 97.2502 63.3957 97.2489C63.7633 97.2355 64.1147 97.3509 64.4595 97.4609C64.8914 97.7117 65.2684 98.0498 65.5461 98.4656L65.6306 98.5166C65.6319 98.5582 65.6333 98.64 65.6333 98.6816C66.0169 99.3335 65.9418 100.136 65.6896 100.82C65.3972 101.332 64.9733 101.762 64.4581 102.05C64.1107 102.163 63.7579 102.278 63.3876 102.263C59.543 102.262 55.6997 102.262 51.8551 102.263C51.4862 102.278 51.1361 102.163 50.7886 102.055C50.2748 101.762 49.8483 101.335 49.5558 100.821C49.2822 100.137 49.2835 99.3751 49.5558 98.691C49.867 98.1866 50.2654 97.6902 50.8383 97.477L50.8584 97.4193Z" fill="#31333E"/>
<path d="M50.7832 111.144C51.1306 111.032 51.4835 110.918 51.8537 110.932C55.7037 110.933 59.555 110.932 63.405 110.933C63.7699 110.917 64.116 111.035 64.4594 111.144C64.8927 111.391 65.2643 111.733 65.546 112.146L65.6265 112.197C65.6292 112.24 65.6346 112.324 65.6372 112.366C66.0035 112.996 65.9364 113.762 65.7258 114.433L65.6775 114.457C65.428 115.015 64.9719 115.482 64.4098 115.724L64.3843 115.777C64.0597 115.863 63.7297 115.95 63.3903 115.945C59.543 115.946 55.697 115.945 51.8497 115.946C51.4821 115.96 51.1333 115.844 50.7872 115.737C50.2077 115.39 49.6698 114.895 49.4686 114.229C49.2513 113.624 49.3425 112.965 49.5544 112.374C49.8469 111.861 50.2721 111.436 50.7832 111.144Z" fill="#31333E"/>
<path d="M50.7885 124.824C51.136 124.715 51.4874 124.599 51.8563 124.615C55.7023 124.616 59.5483 124.615 63.3943 124.616C63.7712 124.595 64.1347 124.705 64.4661 124.875L64.5882 124.879C65.0282 125.198 65.4226 125.585 65.6895 126.062C65.9524 126.72 65.9551 127.448 65.7257 128.116L65.6774 128.14C65.444 128.701 64.9718 129.11 64.4621 129.417C63.7404 129.716 62.9516 129.614 62.191 129.629C58.7461 129.628 55.3012 129.629 51.8563 129.628C51.5156 129.633 51.1856 129.547 50.8596 129.46L50.8341 129.406C49.9045 129.004 49.2633 127.999 49.3478 126.98C49.3652 126.05 50.0038 125.261 50.7885 124.824Z" fill="#31333E"/>
<path d="M115.823 132.826L115.888 132.761C118.456 135.316 121.048 137.844 123.619 140.394C124.113 140.888 124.421 141.57 124.421 142.271C124.463 143.626 123.354 144.89 122.019 145.068C121.148 145.204 120.256 144.852 119.658 144.218C117.125 141.697 114.552 139.218 112.041 136.677C113.293 135.384 114.554 134.1 115.823 132.826Z" fill="#31333E"/>
<path d="M82.1063 140.6C84.6538 137.996 87.2589 135.446 89.7902 132.827C91.1049 134.098 92.3779 135.41 93.6845 136.687C92.1552 138.35 90.5106 139.905 88.9357 141.525C87.9725 142.49 87.0188 143.465 86.0529 144.427C85.5297 144.953 84.7919 145.264 84.0474 145.225C82.7033 145.195 81.496 144.04 81.3806 142.707C81.2974 141.94 81.5764 141.156 82.1063 140.6Z" fill="#31333E"/>
<path d="M50.7859 138.51C51.509 138.208 52.2991 138.314 53.061 138.298C56.5046 138.299 59.9481 138.298 63.3903 138.298C63.7592 138.283 64.112 138.397 64.4581 138.507C64.9719 138.801 65.3985 139.229 65.6896 139.744C65.9525 140.401 65.9552 141.131 65.7258 141.799L65.6775 141.822C65.4441 142.384 64.9705 142.794 64.4608 143.101C63.7377 143.401 62.9476 143.296 62.1857 143.312C58.7435 143.311 55.2999 143.312 51.8564 143.312C51.4862 143.325 51.132 143.213 50.7846 143.1C50.2721 142.808 49.8469 142.382 49.5558 141.87C49.3412 141.277 49.2513 140.616 49.4699 140.011C49.6725 139.349 50.2064 138.853 50.7859 138.51Z" fill="#31333E"/>
<path d="M50.7859 152.193C51.5063 151.893 52.2938 151.995 53.053 151.981C56.5435 151.985 60.0353 151.974 63.5272 151.986C64.3616 151.991 65.098 152.516 65.5447 153.193L65.6239 153.244C65.6279 153.287 65.636 153.372 65.64 153.415C66.0008 154.046 65.9378 154.81 65.7258 155.481L65.6762 155.506C65.2885 156.387 64.3642 157.027 63.3877 156.994C59.8998 156.995 56.4107 156.994 52.9229 156.995C52.2066 156.987 51.4634 157.069 50.7846 156.783C50.2708 156.492 49.8469 156.064 49.5558 155.553C49.2795 154.867 49.2862 154.103 49.5558 153.416C49.8523 152.909 50.2722 152.481 50.7859 152.193Z" fill="#31333E"/>
<path d="M57.6219 74.935C57.7158 74.9337 57.905 74.931 57.9989 74.9296C84.2111 74.9511 110.423 74.9323 136.634 74.939C138.367 74.829 140.168 75.2462 141.543 76.3422C142.798 77.3094 143.694 78.7367 144.008 80.2928C144.174 81.0454 144.146 81.8194 144.146 82.5854C144.146 108.029 144.148 133.471 144.146 158.915C144.154 160.705 143.403 162.483 142.113 163.724C140.88 164.932 139.167 165.629 137.44 165.622C110.834 165.623 84.2285 165.622 57.6219 165.622C57.6421 163.221 57.5804 160.818 57.6541 158.418C59.5201 158.446 61.3847 158.42 63.2507 158.432C63.841 158.448 64.4017 158.23 64.9785 158.135L64.9436 158.002C64.9946 158.015 65.0939 158.039 65.1435 158.051C65.385 157.88 65.6332 157.722 65.8934 157.585L65.7968 157.444L66.0115 157.553L66.0128 157.442C66.1241 157.33 66.2341 157.219 66.3428 157.108L66.4582 157.109L66.3455 156.896L66.4863 156.991C66.6245 156.731 66.7828 156.483 66.9518 156.242C66.9397 156.193 66.9156 156.092 66.9049 156.043L67.039 156.076C67.1168 155.644 67.2362 155.222 67.314 154.791C67.4119 154.144 67.1329 153.529 67.0377 152.898L66.9022 152.936C66.9143 152.885 66.9397 152.784 66.9518 152.733C66.7828 152.492 66.6245 152.244 66.4863 151.985L66.3482 152.079L66.4622 151.857L66.2636 151.903L66.3026 151.72L66.1268 151.749L66.159 151.573L65.9752 151.618L66.0222 151.416L65.7995 151.533L65.8947 151.39C65.6332 151.252 65.3836 151.094 65.1435 150.925C65.0926 150.938 64.9919 150.964 64.9423 150.977L64.9799 150.84C64.403 150.745 63.8423 150.528 63.2494 150.544C61.3847 150.556 59.5201 150.529 57.6555 150.559C57.6005 148.619 57.6005 146.674 57.6555 144.734C59.5215 144.764 61.3888 144.737 63.2561 144.749C63.845 144.765 64.403 144.548 64.9785 144.454L64.9436 144.321C64.9946 144.332 65.0952 144.356 65.1449 144.366C65.3863 144.197 65.6345 144.039 65.8934 143.901L65.7968 143.76L66.0115 143.871L66.0128 143.759C66.1228 143.647 66.2341 143.536 66.3428 143.426H66.4568L66.3495 143.213L66.4877 143.309C66.6245 143.048 66.7828 142.8 66.9518 142.56C66.9397 142.51 66.9156 142.411 66.9035 142.361L67.039 142.392C67.1182 141.961 67.2362 141.539 67.314 141.108C67.4119 140.461 67.1329 139.846 67.039 139.217L66.9022 139.251C66.9156 139.202 66.9397 139.101 66.9532 139.05C66.7828 138.809 66.6245 138.559 66.485 138.3L66.3415 138.396L66.4649 138.174L66.2636 138.219L66.3026 138.037L66.1282 138.067L66.1577 137.891L65.9739 137.934L66.0222 137.732L65.7995 137.851L65.8934 137.709C65.6332 137.569 65.385 137.411 65.1449 137.243C65.0939 137.255 64.9933 137.281 64.9423 137.293L64.9785 137.157C64.4044 137.062 63.845 136.845 63.2561 136.861C61.3901 136.873 59.5215 136.846 57.6555 136.876C57.6005 134.936 57.6005 132.991 57.6555 131.051C59.5201 131.081 61.3861 131.054 63.2507 131.066C63.841 131.082 64.4017 130.865 64.9772 130.771L64.945 130.637C64.9946 130.649 65.0952 130.673 65.1449 130.685C65.3863 130.515 65.6345 130.355 65.8934 130.215L65.7995 130.066L66.0128 130.193L66.0115 130.077C66.1228 129.965 66.2328 129.853 66.3441 129.742L66.4568 129.745L66.3468 129.53L66.4863 129.625C66.6245 129.365 66.7828 129.117 66.9518 128.877C66.9397 128.827 66.9156 128.726 66.9035 128.677L67.039 128.71C67.1168 128.278 67.2362 127.856 67.3154 127.425C67.4106 126.779 67.1329 126.163 67.039 125.534L66.9008 125.569C66.9143 125.519 66.9397 125.418 66.9532 125.369C66.7841 125.126 66.6232 124.878 66.4836 124.617L66.3347 124.711L66.4622 124.499L66.3455 124.502C66.2341 124.389 66.1215 124.278 66.0074 124.168L66.0128 124.047L65.7995 124.18L65.8934 124.027C65.6332 123.888 65.385 123.727 65.1435 123.558C65.0926 123.571 64.9933 123.599 64.9423 123.613L64.9799 123.475C64.403 123.381 63.841 123.159 63.2507 123.178C61.3847 123.19 59.5201 123.163 57.6555 123.193C57.6005 121.253 57.6005 119.308 57.6541 117.37C59.5174 117.398 61.3821 117.371 63.2454 117.383C63.8383 117.4 64.4004 117.183 64.9785 117.086L64.9436 116.955C64.9946 116.966 65.0952 116.989 65.1449 117.001C65.3863 116.832 65.6345 116.673 65.8934 116.534L65.7982 116.388L66.0115 116.508V116.393C66.1228 116.283 66.2328 116.172 66.3428 116.06H66.4568L66.3482 115.847L66.4877 115.942C66.6245 115.682 66.7828 115.434 66.9518 115.194C66.9397 115.143 66.9156 115.043 66.9035 114.994L67.0377 115.027C67.1329 114.398 67.4119 113.781 67.314 113.136C67.2362 112.705 67.1168 112.283 67.039 111.852L66.9035 111.887C66.921 111.823 66.9558 111.692 66.9733 111.628L66.7721 111.588C66.7908 111.527 66.8311 111.407 66.8512 111.346L66.6996 111.373C66.6312 111.224 66.5655 111.077 66.5011 110.926L66.3441 111.03L66.4676 110.808L66.265 110.857L66.3039 110.674L66.1295 110.7L66.155 110.525L65.9685 110.564L66.0249 110.36L65.7995 110.49L65.8947 110.343C65.6332 110.205 65.3836 110.045 65.1422 109.875C65.0925 109.89 64.9933 109.916 64.9423 109.93L64.9799 109.792C64.403 109.696 63.8436 109.478 63.2521 109.495C61.3861 109.507 59.5201 109.48 57.6541 109.509C57.6005 107.57 57.6005 105.625 57.6541 103.687C59.5215 103.715 61.3874 103.688 63.2547 103.7C63.8436 103.717 64.403 103.499 64.9785 103.404L64.9436 103.269C64.9946 103.281 65.0939 103.307 65.1435 103.319C65.385 103.15 65.6332 102.99 65.8934 102.854L65.7968 102.71L66.0115 102.823L66.0128 102.71C66.1228 102.599 66.2341 102.487 66.3428 102.376L66.4582 102.377L66.3468 102.164L66.4863 102.259C66.6245 101.999 66.7828 101.752 66.9518 101.511C66.9397 101.461 66.9156 101.36 66.9049 101.31L67.0377 101.346C67.1329 100.715 67.4119 100.098 67.314 99.4516C67.2362 99.021 67.1168 98.5984 67.0377 98.1678L66.9008 98.2027C66.9143 98.1531 66.9397 98.0524 66.9532 98.0028C66.7828 97.7613 66.6245 97.5118 66.4863 97.2516L66.3415 97.3468L66.4662 97.1255L66.265 97.1724L66.3039 96.99L66.1282 97.0168L66.1563 96.8424L65.9712 96.884L66.0235 96.6815L65.7995 96.8022L65.8934 96.6587C65.6332 96.5218 65.3836 96.3622 65.1435 96.1932C65.0939 96.2066 64.9933 96.2321 64.9436 96.2455L64.9785 96.1073C64.4017 96.0134 63.8423 95.7948 63.2507 95.8122C61.3861 95.8243 59.5201 95.7974 57.6555 95.827C57.6005 93.8872 57.6005 91.9421 57.6555 90.0037C59.5215 90.0318 61.3874 90.005 63.2547 90.0171C63.8436 90.0332 64.4044 89.8159 64.9799 89.7206L64.9436 89.5865C64.9933 89.5999 65.0939 89.624 65.1435 89.6361C65.385 89.4671 65.6332 89.3074 65.8947 89.1693L65.7982 89.0271L66.0222 89.1465L65.9752 88.9479L66.155 88.9868L66.1308 88.8138L66.3026 88.8393L66.265 88.6568L66.4662 88.7051L66.3388 88.4838L66.485 88.5777C66.6245 88.3174 66.7841 88.0679 66.9532 87.8265C66.9397 87.7768 66.9143 87.6776 66.9022 87.6279L67.039 87.6615C67.1329 87.0323 67.4106 86.4166 67.314 85.77C67.2362 85.3381 67.1168 84.9155 67.0377 84.4835L66.9022 84.5211C66.9143 84.4715 66.9397 84.3695 66.9532 84.3185C66.7828 84.0771 66.6232 83.8289 66.4836 83.5687L66.3374 83.6626L66.4662 83.4412L66.2636 83.4882L66.3026 83.3057L66.1282 83.3352L66.1577 83.1595L65.9725 83.2011L66.0222 82.9972L65.7995 83.1246L65.8947 82.9771C65.6332 82.8389 65.385 82.6793 65.1435 82.5102C65.0939 82.5237 64.9933 82.5491 64.9436 82.5626L64.9785 82.4244C64.403 82.3318 63.8436 82.1118 63.2534 82.1293C61.3874 82.1413 59.5201 82.1145 57.6555 82.144C57.5804 79.7428 57.6421 77.3376 57.6219 74.935ZM118.135 97.8955C116.075 99.8111 114.174 101.894 112.12 103.817C110.826 105.119 109.538 106.427 108.235 107.72C107.374 108.47 106.585 109.335 106.093 110.376C105.139 112.292 105.082 114.63 105.991 116.574C104.058 118.585 102.049 120.521 100.091 122.507C96.6585 125.948 93.2043 129.369 89.7902 132.827C87.2589 135.446 84.6538 137.996 82.1063 140.6C81.5764 141.156 81.2974 141.94 81.3806 142.707C81.496 144.04 82.7033 145.195 84.0474 145.225C84.7919 145.264 85.5297 144.953 86.0529 144.427C87.0188 143.465 87.9725 142.49 88.9357 141.525C90.5106 139.905 92.1552 138.35 93.6845 136.687C96.7014 133.604 99.7868 130.587 102.831 127.53C105.881 130.599 108.972 133.629 111.995 136.724L112.041 136.677C114.552 139.218 117.125 141.697 119.658 144.218C120.256 144.852 121.148 145.204 122.019 145.068C123.354 144.89 124.463 143.626 124.421 142.271C124.421 141.57 124.113 140.888 123.619 140.394C121.048 137.844 118.456 135.316 115.888 132.761L115.823 132.826C112.776 129.774 109.711 126.74 106.683 123.669C107.798 122.611 108.827 121.461 109.967 120.432C110.637 120.55 111.28 120.812 111.967 120.849C114.072 121.065 116.316 120.443 117.84 118.932C121.341 115.5 124.859 112.085 128.333 108.623C129.139 108.057 129.176 106.736 128.343 106.178C127.964 105.869 127.436 105.928 126.985 105.979C126.435 106.154 126.075 106.647 125.67 107.027C124.825 107.928 123.885 108.73 123.032 109.624C122.264 110.426 121.429 111.159 120.664 111.963C120.271 112.351 119.898 112.83 119.327 112.947C118.487 113.144 117.576 112.426 117.616 111.554C117.569 110.803 118.263 110.366 118.712 109.879C120.589 107.955 122.547 106.113 124.416 104.183C125.095 103.464 124.723 102.165 123.802 101.857C123.14 101.644 122.403 101.861 121.936 102.367C120.412 103.929 118.824 105.425 117.293 106.981C116.683 107.486 116.188 108.115 115.566 108.603C114.688 109.238 113.353 108.457 113.373 107.405C113.337 106.674 113.998 106.219 114.444 105.742C115.517 104.623 116.674 103.59 117.754 102.475C118.535 101.69 119.31 100.9 120.106 100.13C120.604 99.6555 120.665 98.8211 120.292 98.255C119.856 97.5548 118.777 97.4059 118.135 97.8955ZM77.8217 107.814C78.2751 109.95 79.4113 111.914 80.9782 113.427C84.7235 117.148 88.4407 120.9 92.2102 124.597C94.7791 122.032 97.3319 119.453 99.9156 116.905C93.5557 110.505 87.1368 104.163 80.7716 97.7694C78.1732 100.318 76.9605 104.262 77.8217 107.814Z" fill="#FE8F00"/>
<path d="M118.135 97.8955C118.777 97.4059 119.857 97.5548 120.292 98.255C120.665 98.8211 120.604 99.6555 120.106 100.13C119.311 100.9 118.535 101.69 117.754 102.475C116.675 103.59 115.517 104.623 114.444 105.742C113.998 106.219 113.337 106.674 113.373 107.405C113.353 108.457 114.688 109.238 115.567 108.603C116.188 108.115 116.683 107.486 117.293 106.981C118.824 105.425 120.412 103.929 121.936 102.367C122.403 101.861 123.14 101.644 123.802 101.857C124.723 102.165 125.095 103.464 124.416 104.183C122.547 106.113 120.589 107.955 118.712 109.879C118.263 110.366 117.569 110.803 117.616 111.554C117.576 112.426 118.487 113.144 119.327 112.947C119.898 112.83 120.271 112.351 120.664 111.963C121.429 111.159 122.264 110.426 123.032 109.624C123.885 108.73 124.825 107.928 125.67 107.027C126.076 106.647 126.435 106.154 126.985 105.979C127.436 105.928 127.964 105.869 128.343 106.178C129.176 106.736 129.139 108.057 128.333 108.623C124.859 112.085 121.342 115.5 117.84 118.932C116.316 120.443 114.072 121.065 111.967 120.849C111.281 120.812 110.637 120.55 109.967 120.432C108.827 121.461 107.798 122.611 106.683 123.669C109.711 126.74 112.776 129.774 115.823 132.826C114.554 134.1 113.293 135.384 112.041 136.677L111.996 136.724C108.972 133.629 105.881 130.599 102.831 127.53C99.7869 130.587 96.7015 133.604 93.6846 136.687C92.378 135.41 91.1049 134.098 89.7903 132.827C93.2043 129.369 96.6586 125.948 100.091 122.507C102.049 120.521 104.058 118.585 105.991 116.574C105.082 114.63 105.139 112.292 106.093 110.376C106.585 109.335 107.374 108.47 108.235 107.72C109.538 106.427 110.826 105.119 112.12 103.817C114.174 101.894 116.075 99.8111 118.135 97.8955Z" fill="white"/>
<path d="M77.8217 107.814C76.9605 104.262 78.1732 100.318 80.7716 97.7694C87.1369 104.163 93.5558 110.505 99.9156 116.905C97.332 119.453 94.7792 122.032 92.2103 124.597C88.4408 120.9 84.7236 117.148 80.9782 113.427C79.4114 111.914 78.2751 109.95 77.8217 107.814Z" fill="white"/>
<rect x="128" y="212" width="40" height="20" rx="8" fill="#FEA038"/>
<rect x="128" y="261" width="40" height="20" rx="8" fill="#FEA038"/>
<rect x="128" y="312" width="40" height="20" rx="8" fill="#FEA038"/>
<path d="M142.629 223.756C142.629 223.436 142.539 223.182 142.359 222.994C142.184 222.803 141.883 222.627 141.457 222.467C141.031 222.307 140.664 222.148 140.355 221.992C140.047 221.832 139.781 221.65 139.559 221.447C139.34 221.24 139.168 220.998 139.043 220.721C138.922 220.443 138.861 220.113 138.861 219.73C138.861 219.07 139.072 218.529 139.494 218.107C139.916 217.686 140.477 217.439 141.176 217.369V216.115H142.113V217.387C142.805 217.484 143.346 217.773 143.736 218.254C144.127 218.73 144.322 219.35 144.322 220.111H142.629C142.629 219.643 142.531 219.293 142.336 219.062C142.145 218.828 141.887 218.711 141.562 218.711C141.242 218.711 140.994 218.803 140.818 218.986C140.643 219.166 140.555 219.416 140.555 219.736C140.555 220.033 140.641 220.271 140.812 220.451C140.984 220.631 141.303 220.814 141.768 221.002C142.236 221.189 142.621 221.367 142.922 221.535C143.223 221.699 143.477 221.887 143.684 222.098C143.891 222.305 144.049 222.543 144.158 222.812C144.268 223.078 144.322 223.389 144.322 223.744C144.322 224.408 144.115 224.947 143.701 225.361C143.287 225.775 142.717 226.02 141.99 226.094V227.26H141.059V226.1C140.258 226.014 139.637 225.73 139.195 225.25C138.758 224.766 138.539 224.123 138.539 223.322H140.232C140.232 223.787 140.342 224.145 140.561 224.395C140.783 224.641 141.102 224.764 141.516 224.764C141.859 224.764 142.131 224.674 142.33 224.494C142.529 224.311 142.629 224.064 142.629 223.756ZM149.52 223.756C149.52 223.436 149.43 223.182 149.25 222.994C149.074 222.803 148.773 222.627 148.348 222.467C147.922 222.307 147.555 222.148 147.246 221.992C146.938 221.832 146.672 221.65 146.449 221.447C146.23 221.24 146.059 220.998 145.934 220.721C145.812 220.443 145.752 220.113 145.752 219.73C145.752 219.07 145.963 218.529 146.385 218.107C146.807 217.686 147.367 217.439 148.066 217.369V216.115H149.004V217.387C149.695 217.484 150.236 217.773 150.627 218.254C151.018 218.73 151.213 219.35 151.213 220.111H149.52C149.52 219.643 149.422 219.293 149.227 219.062C149.035 218.828 148.777 218.711 148.453 218.711C148.133 218.711 147.885 218.803 147.709 218.986C147.533 219.166 147.445 219.416 147.445 219.736C147.445 220.033 147.531 220.271 147.703 220.451C147.875 220.631 148.193 220.814 148.658 221.002C149.127 221.189 149.512 221.367 149.812 221.535C150.113 221.699 150.367 221.887 150.574 222.098C150.781 222.305 150.939 222.543 151.049 222.812C151.158 223.078 151.213 223.389 151.213 223.744C151.213 224.408 151.006 224.947 150.592 225.361C150.178 225.775 149.607 226.02 148.881 226.094V227.26H147.949V226.1C147.148 226.014 146.527 225.73 146.086 225.25C145.648 224.766 145.43 224.123 145.43 223.322H147.123C147.123 223.787 147.232 224.145 147.451 224.395C147.674 224.641 147.992 224.764 148.406 224.764C148.75 224.764 149.021 224.674 149.221 224.494C149.42 224.311 149.52 224.064 149.52 223.756ZM156.41 223.756C156.41 223.436 156.32 223.182 156.141 222.994C155.965 222.803 155.664 222.627 155.238 222.467C154.812 222.307 154.445 222.148 154.137 221.992C153.828 221.832 153.562 221.65 153.34 221.447C153.121 221.24 152.949 220.998 152.824 220.721C152.703 220.443 152.643 220.113 152.643 219.73C152.643 219.07 152.854 218.529 153.275 218.107C153.697 217.686 154.258 217.439 154.957 217.369V216.115H155.895V217.387C156.586 217.484 157.127 217.773 157.518 218.254C157.908 218.73 158.104 219.35 158.104 220.111H156.41C156.41 219.643 156.312 219.293 156.117 219.062C155.926 218.828 155.668 218.711 155.344 218.711C155.023 218.711 154.775 218.803 154.6 218.986C154.424 219.166 154.336 219.416 154.336 219.736C154.336 220.033 154.422 220.271 154.594 220.451C154.766 220.631 155.084 220.814 155.549 221.002C156.018 221.189 156.402 221.367 156.703 221.535C157.004 221.699 157.258 221.887 157.465 222.098C157.672 222.305 157.83 222.543 157.939 222.812C158.049 223.078 158.104 223.389 158.104 223.744C158.104 224.408 157.896 224.947 157.482 225.361C157.068 225.775 156.498 226.02 155.771 226.094V227.26H154.84V226.1C154.039 226.014 153.418 225.73 152.977 225.25C152.539 224.766 152.32 224.123 152.32 223.322H154.014C154.014 223.787 154.123 224.145 154.342 224.395C154.564 224.641 154.883 224.764 155.297 224.764C155.641 224.764 155.912 224.674 156.111 224.494C156.311 224.311 156.41 224.064 156.41 223.756Z" fill="white"/>
<path d="M142.629 272.756C142.629 272.436 142.539 272.182 142.359 271.994C142.184 271.803 141.883 271.627 141.457 271.467C141.031 271.307 140.664 271.148 140.355 270.992C140.047 270.832 139.781 270.65 139.559 270.447C139.34 270.24 139.168 269.998 139.043 269.721C138.922 269.443 138.861 269.113 138.861 268.73C138.861 268.07 139.072 267.529 139.494 267.107C139.916 266.686 140.477 266.439 141.176 266.369V265.115H142.113V266.387C142.805 266.484 143.346 266.773 143.736 267.254C144.127 267.73 144.322 268.35 144.322 269.111H142.629C142.629 268.643 142.531 268.293 142.336 268.062C142.145 267.828 141.887 267.711 141.562 267.711C141.242 267.711 140.994 267.803 140.818 267.986C140.643 268.166 140.555 268.416 140.555 268.736C140.555 269.033 140.641 269.271 140.812 269.451C140.984 269.631 141.303 269.814 141.768 270.002C142.236 270.189 142.621 270.367 142.922 270.535C143.223 270.699 143.477 270.887 143.684 271.098C143.891 271.305 144.049 271.543 144.158 271.812C144.268 272.078 144.322 272.389 144.322 272.744C144.322 273.408 144.115 273.947 143.701 274.361C143.287 274.775 142.717 275.02 141.99 275.094V276.26H141.059V275.1C140.258 275.014 139.637 274.73 139.195 274.25C138.758 273.766 138.539 273.123 138.539 272.322H140.232C140.232 272.787 140.342 273.145 140.561 273.395C140.783 273.641 141.102 273.764 141.516 273.764C141.859 273.764 142.131 273.674 142.33 273.494C142.529 273.311 142.629 273.064 142.629 272.756ZM149.52 272.756C149.52 272.436 149.43 272.182 149.25 271.994C149.074 271.803 148.773 271.627 148.348 271.467C147.922 271.307 147.555 271.148 147.246 270.992C146.938 270.832 146.672 270.65 146.449 270.447C146.23 270.24 146.059 269.998 145.934 269.721C145.812 269.443 145.752 269.113 145.752 268.73C145.752 268.07 145.963 267.529 146.385 267.107C146.807 266.686 147.367 266.439 148.066 266.369V265.115H149.004V266.387C149.695 266.484 150.236 266.773 150.627 267.254C151.018 267.73 151.213 268.35 151.213 269.111H149.52C149.52 268.643 149.422 268.293 149.227 268.062C149.035 267.828 148.777 267.711 148.453 267.711C148.133 267.711 147.885 267.803 147.709 267.986C147.533 268.166 147.445 268.416 147.445 268.736C147.445 269.033 147.531 269.271 147.703 269.451C147.875 269.631 148.193 269.814 148.658 270.002C149.127 270.189 149.512 270.367 149.812 270.535C150.113 270.699 150.367 270.887 150.574 271.098C150.781 271.305 150.939 271.543 151.049 271.812C151.158 272.078 151.213 272.389 151.213 272.744C151.213 273.408 151.006 273.947 150.592 274.361C150.178 274.775 149.607 275.02 148.881 275.094V276.26H147.949V275.1C147.148 275.014 146.527 274.73 146.086 274.25C145.648 273.766 145.43 273.123 145.43 272.322H147.123C147.123 272.787 147.232 273.145 147.451 273.395C147.674 273.641 147.992 273.764 148.406 273.764C148.75 273.764 149.021 273.674 149.221 273.494C149.42 273.311 149.52 273.064 149.52 272.756ZM156.41 272.756C156.41 272.436 156.32 272.182 156.141 271.994C155.965 271.803 155.664 271.627 155.238 271.467C154.812 271.307 154.445 271.148 154.137 270.992C153.828 270.832 153.562 270.65 153.34 270.447C153.121 270.24 152.949 269.998 152.824 269.721C152.703 269.443 152.643 269.113 152.643 268.73C152.643 268.07 152.854 267.529 153.275 267.107C153.697 266.686 154.258 266.439 154.957 266.369V265.115H155.895V266.387C156.586 266.484 157.127 266.773 157.518 267.254C157.908 267.73 158.104 268.35 158.104 269.111H156.41C156.41 268.643 156.312 268.293 156.117 268.062C155.926 267.828 155.668 267.711 155.344 267.711C155.023 267.711 154.775 267.803 154.6 267.986C154.424 268.166 154.336 268.416 154.336 268.736C154.336 269.033 154.422 269.271 154.594 269.451C154.766 269.631 155.084 269.814 155.549 270.002C156.018 270.189 156.402 270.367 156.703 270.535C157.004 270.699 157.258 270.887 157.465 271.098C157.672 271.305 157.83 271.543 157.939 271.812C158.049 272.078 158.104 272.389 158.104 272.744C158.104 273.408 157.896 273.947 157.482 274.361C157.068 274.775 156.498 275.02 155.771 275.094V276.26H154.84V275.1C154.039 275.014 153.418 274.73 152.977 274.25C152.539 273.766 152.32 273.123 152.32 272.322H154.014C154.014 272.787 154.123 273.145 154.342 273.395C154.564 273.641 154.883 273.764 155.297 273.764C155.641 273.764 155.912 273.674 156.111 273.494C156.311 273.311 156.41 273.064 156.41 272.756Z" fill="white"/>
<path d="M142.629 323.756C142.629 323.436 142.539 323.182 142.359 322.994C142.184 322.803 141.883 322.627 141.457 322.467C141.031 322.307 140.664 322.148 140.355 321.992C140.047 321.832 139.781 321.65 139.559 321.447C139.34 321.24 139.168 320.998 139.043 320.721C138.922 320.443 138.861 320.113 138.861 319.73C138.861 319.07 139.072 318.529 139.494 318.107C139.916 317.686 140.477 317.439 141.176 317.369V316.115H142.113V317.387C142.805 317.484 143.346 317.773 143.736 318.254C144.127 318.73 144.322 319.35 144.322 320.111H142.629C142.629 319.643 142.531 319.293 142.336 319.062C142.145 318.828 141.887 318.711 141.562 318.711C141.242 318.711 140.994 318.803 140.818 318.986C140.643 319.166 140.555 319.416 140.555 319.736C140.555 320.033 140.641 320.271 140.812 320.451C140.984 320.631 141.303 320.814 141.768 321.002C142.236 321.189 142.621 321.367 142.922 321.535C143.223 321.699 143.477 321.887 143.684 322.098C143.891 322.305 144.049 322.543 144.158 322.812C144.268 323.078 144.322 323.389 144.322 323.744C144.322 324.408 144.115 324.947 143.701 325.361C143.287 325.775 142.717 326.02 141.99 326.094V327.26H141.059V326.1C140.258 326.014 139.637 325.73 139.195 325.25C138.758 324.766 138.539 324.123 138.539 323.322H140.232C140.232 323.787 140.342 324.145 140.561 324.395C140.783 324.641 141.102 324.764 141.516 324.764C141.859 324.764 142.131 324.674 142.33 324.494C142.529 324.311 142.629 324.064 142.629 323.756ZM149.52 323.756C149.52 323.436 149.43 323.182 149.25 322.994C149.074 322.803 148.773 322.627 148.348 322.467C147.922 322.307 147.555 322.148 147.246 321.992C146.938 321.832 146.672 321.65 146.449 321.447C146.23 321.24 146.059 320.998 145.934 320.721C145.812 320.443 145.752 320.113 145.752 319.73C145.752 319.07 145.963 318.529 146.385 318.107C146.807 317.686 147.367 317.439 148.066 317.369V316.115H149.004V317.387C149.695 317.484 150.236 317.773 150.627 318.254C151.018 318.73 151.213 319.35 151.213 320.111H149.52C149.52 319.643 149.422 319.293 149.227 319.062C149.035 318.828 148.777 318.711 148.453 318.711C148.133 318.711 147.885 318.803 147.709 318.986C147.533 319.166 147.445 319.416 147.445 319.736C147.445 320.033 147.531 320.271 147.703 320.451C147.875 320.631 148.193 320.814 148.658 321.002C149.127 321.189 149.512 321.367 149.812 321.535C150.113 321.699 150.367 321.887 150.574 322.098C150.781 322.305 150.939 322.543 151.049 322.812C151.158 323.078 151.213 323.389 151.213 323.744C151.213 324.408 151.006 324.947 150.592 325.361C150.178 325.775 149.607 326.02 148.881 326.094V327.26H147.949V326.1C147.148 326.014 146.527 325.73 146.086 325.25C145.648 324.766 145.43 324.123 145.43 323.322H147.123C147.123 323.787 147.232 324.145 147.451 324.395C147.674 324.641 147.992 324.764 148.406 324.764C148.75 324.764 149.021 324.674 149.221 324.494C149.42 324.311 149.52 324.064 149.52 323.756ZM156.41 323.756C156.41 323.436 156.32 323.182 156.141 322.994C155.965 322.803 155.664 322.627 155.238 322.467C154.812 322.307 154.445 322.148 154.137 321.992C153.828 321.832 153.562 321.65 153.34 321.447C153.121 321.24 152.949 320.998 152.824 320.721C152.703 320.443 152.643 320.113 152.643 319.73C152.643 319.07 152.854 318.529 153.275 318.107C153.697 317.686 154.258 317.439 154.957 317.369V316.115H155.895V317.387C156.586 317.484 157.127 317.773 157.518 318.254C157.908 318.73 158.104 319.35 158.104 320.111H156.41C156.41 319.643 156.312 319.293 156.117 319.062C155.926 318.828 155.668 318.711 155.344 318.711C155.023 318.711 154.775 318.803 154.6 318.986C154.424 319.166 154.336 319.416 154.336 319.736C154.336 320.033 154.422 320.271 154.594 320.451C154.766 320.631 155.084 320.814 155.549 321.002C156.018 321.189 156.402 321.367 156.703 321.535C157.004 321.699 157.258 321.887 157.465 322.098C157.672 322.305 157.83 322.543 157.939 322.812C158.049 323.078 158.104 323.389 158.104 323.744C158.104 324.408 157.896 324.947 157.482 325.361C157.068 325.775 156.498 326.02 155.771 326.094V327.26H154.84V326.1C154.039 326.014 153.418 325.73 152.977 325.25C152.539 324.766 152.32 324.123 152.32 323.322H154.014C154.014 323.787 154.123 324.145 154.342 324.395C154.564 324.641 154.883 324.764 155.297 324.764C155.641 324.764 155.912 324.674 156.111 324.494C156.311 324.311 156.41 324.064 156.41 323.756Z" fill="white"/>
<rect x="35" y="215" width="53" height="9" fill="#FEA038"/>
<rect x="35" y="229" width="76" height="9" fill="#A39992"/>
<rect x="35" y="264" width="53" height="9" fill="#FEA038"/>
<rect x="35" y="278" width="76" height="9" fill="#A39992"/>
<rect x="35" y="315" width="53" height="9" fill="#FEA038"/>
<rect x="35" y="329" width="76" height="9" fill="#A39992"/>
</g>
<defs>
<clipPath id="clip0_47_118">
<rect width="412" height="391" fill="white"/>
</clipPath>
</defs>
</svg>
