<svg width="660" height="174" viewBox="0 0 660 174" fill="none" xmlns="http://www.w3.org/2000/svg">
<g clip-path="url(#clip0_328_50)">
<path d="M223.576 44.0801C214.624 44.0801 207.577 46.9447 202.434 52.6738C197.29 58.403 194.719 66.248 194.719 76.209C194.719 86.3978 197.144 94.3079 201.994 99.9395C206.844 105.571 213.778 108.387 222.795 108.387C228.785 108.387 234.286 107.622 239.299 106.092V110.486C234.579 112.146 228.687 112.977 221.623 112.977C211.597 112.977 203.703 109.738 197.941 103.26C192.18 96.7819 189.299 87.7324 189.299 76.1113C189.299 68.8522 190.666 62.4557 193.4 56.9219C196.167 51.388 200.122 47.1237 205.266 44.1289C210.441 41.1016 216.447 39.5879 223.283 39.5879C230.249 39.5879 236.483 40.89 241.984 43.4941L239.982 47.9863C234.774 45.3822 229.305 44.0801 223.576 44.0801ZM289.592 86.8047H260.588L250.627 112H245.109L273.82 40.3203H276.994L305.119 112H299.504L289.592 86.8047ZM262.395 82.3125H287.932L278.215 56.5801C277.401 54.5618 276.424 51.7624 275.285 48.1816C274.406 51.3066 273.446 54.1387 272.404 56.6777L262.395 82.3125ZM320.256 80.8965V112H315.275V40.6133H332.268C341.122 40.6133 347.665 42.2572 351.896 45.5449C356.128 48.8001 358.244 53.7155 358.244 60.291C358.244 65.0762 356.975 69.1126 354.436 72.4004C351.929 75.6882 348.104 78.0482 342.961 79.4805L362.346 112H356.389L337.98 80.8965H320.256ZM320.256 76.5996H333.879C339.901 76.5996 344.572 75.265 347.893 72.5957C351.213 69.8939 352.873 65.9225 352.873 60.6816C352.873 55.2454 351.245 51.2904 347.99 48.8164C344.735 46.3424 339.429 45.1055 332.072 45.1055H320.256V76.5996ZM428.947 75.623C428.947 87.6022 425.806 96.668 419.523 102.82C413.241 108.94 404.012 112 391.838 112H374.748V40.6133H394.035C405.428 40.6133 414.087 43.5918 420.012 49.5488C425.969 55.5059 428.947 64.1973 428.947 75.623ZM423.527 75.8184C423.527 65.597 420.923 57.9147 415.715 52.7715C410.539 47.5957 402.922 45.0078 392.863 45.0078H379.729V107.605H391.545C412.867 107.605 423.527 97.0098 423.527 75.8184ZM479.729 86.8047H450.725L440.764 112H435.246L463.957 40.3203H467.131L495.256 112H489.641L479.729 86.8047ZM452.531 82.3125H478.068L468.352 56.5801C467.538 54.5618 466.561 51.7624 465.422 48.1816C464.543 51.3066 463.583 54.1387 462.541 56.6777L452.531 82.3125ZM459.855 34.1191C462.232 31.5475 464.576 28.7643 466.887 25.7695C469.23 22.7422 470.826 20.4473 471.672 18.8848H478.557V19.7148C477.385 21.4076 475.383 23.6536 472.551 26.4531C469.751 29.2526 466.659 32.0684 463.273 34.9004H459.855V34.1191ZM548.381 61.1211C548.381 68.0221 546.037 73.3118 541.35 76.9902C536.662 80.6686 530.021 82.5078 521.428 82.5078H510.393V112H505.412V40.6133H522.893C539.885 40.6133 548.381 47.4492 548.381 61.1211ZM510.393 78.2109H520.207C528.247 78.2109 534.058 76.8926 537.639 74.2559C541.219 71.5866 543.01 67.2734 543.01 61.3164C543.01 55.8151 541.317 51.7461 537.932 49.1094C534.546 46.4401 529.305 45.1055 522.209 45.1055H510.393V78.2109ZM563.908 112V40.6133H568.889V112H563.908ZM649.113 76.209C649.113 87.5371 646.281 96.5052 640.617 103.113C634.953 109.689 627.141 112.977 617.18 112.977C607.251 112.977 599.455 109.689 593.791 103.113C588.127 96.5052 585.295 87.5046 585.295 76.1113C585.295 64.7507 588.143 55.8151 593.84 49.3047C599.569 42.7617 607.382 39.4902 617.277 39.4902C627.238 39.4902 635.035 42.778 640.666 49.3535C646.298 55.8965 649.113 64.8483 649.113 76.209ZM590.715 76.209C590.715 86.4303 592.993 94.3405 597.551 99.9395C602.108 105.506 608.651 108.289 617.18 108.289C625.773 108.289 632.333 105.522 636.857 99.9883C641.415 94.4544 643.693 86.528 643.693 76.209C643.693 65.9225 641.415 58.0449 636.857 52.5762C632.333 47.0749 625.806 44.3242 617.277 44.3242C608.781 44.3242 602.222 47.0911 597.6 52.625C593.01 58.1589 590.715 66.0202 590.715 76.209Z" fill="white"/>
<path d="M139 100H511V148H139V100Z" fill="white"/>
<path d="M21.8165 16.7381C61.6257 13.2468 101.442 9.83546 141.253 6.37524C143.841 6.07782 146.533 6.93012 148.453 8.69685C150.715 10.7166 151.876 13.7551 151.922 16.7537C108.555 16.7426 65.1858 16.7737 21.8165 16.7381Z" fill="white"/>
<path d="M10.0908 31.2848C11.1651 30.9297 12.3081 31.0385 13.4201 31.0274C18.6004 31.0274 23.7808 31.0274 28.9611 31.0274C30.1486 31.0407 31.3804 30.9053 32.5057 31.3803C33.2204 31.7887 33.8374 32.3502 34.3013 33.0316L34.43 33.1204C34.4367 33.1914 34.4522 33.3312 34.4589 33.4C35.0537 34.4476 34.9538 35.7106 34.6009 36.8203L34.521 36.858C34.1037 37.8568 33.2381 38.5826 32.2948 39.0665C31.7821 39.2018 31.265 39.3306 30.7323 39.3217C24.3734 39.3239 18.0167 39.3217 11.6578 39.3239C11.043 39.3483 10.4548 39.1619 9.87998 38.9732C9.03435 38.4872 8.32632 37.7902 7.84913 36.9402C7.39191 35.8104 7.39635 34.5453 7.84469 33.4156C8.36406 32.4989 9.14088 31.7465 10.0908 31.2848Z" fill="white"/>
<path d="M10.002 53.9483C10.5391 53.8062 11.0829 53.6597 11.6444 53.6686C18.0122 53.6664 24.38 53.6686 30.7455 53.6664C31.3537 53.6442 31.9352 53.8351 32.5056 54.0171C33.2203 54.4321 33.844 54.9914 34.3034 55.6795L34.4432 55.7638C34.4454 55.8326 34.4477 55.968 34.4477 56.0368C35.0824 57.1155 34.9581 58.4428 34.5409 59.5747C34.057 60.4226 33.3557 61.1328 32.5034 61.61C31.9285 61.7965 31.3448 61.9873 30.7322 61.9629C24.3711 61.9607 18.0122 61.9607 11.6511 61.9629C11.0407 61.9873 10.4614 61.7965 9.88654 61.6189C9.03647 61.1328 8.33066 60.427 7.84681 59.5769C7.39403 58.445 7.39625 57.1843 7.84681 56.0524C8.36174 55.2178 9.02093 54.3966 9.96866 54.0437L10.002 53.9483Z" fill="white"/>
<path d="M9.87779 76.6561C10.4526 76.4718 11.0364 76.2832 11.649 76.3054C18.019 76.3076 24.3912 76.3054 30.7612 76.3076C31.3649 76.281 31.9375 76.4763 32.5057 76.6561C33.2226 77.0645 33.8374 77.6304 34.3035 78.314L34.4367 78.3984C34.4411 78.4694 34.45 78.6092 34.4544 78.678C35.0604 79.7212 34.9494 80.9886 34.6009 82.0983L34.521 82.1383C34.1082 83.0616 33.3536 83.834 32.4236 84.2335L32.3814 84.3223C31.8443 84.4643 31.2983 84.6086 30.7368 84.5997C24.3712 84.6019 18.0079 84.5997 11.6423 84.6019C11.0342 84.6241 10.4571 84.4332 9.88445 84.2557C8.92562 83.6808 8.03559 82.8618 7.70267 81.7609C7.3431 80.7599 7.49403 79.6702 7.84471 78.6914C8.32857 77.8435 9.03215 77.1399 9.87779 76.6561Z" fill="white"/>
<path d="M9.88659 99.2907C10.4614 99.1109 11.043 98.9178 11.6533 98.9444C18.0167 98.9467 24.38 98.9444 30.7433 98.9467C31.367 98.9111 31.9685 99.0931 32.5167 99.375L32.7187 99.3817C33.4467 99.9099 34.0992 100.549 34.5409 101.339C34.976 102.427 34.9804 103.632 34.6009 104.737L34.521 104.777C34.1348 105.705 33.3535 106.382 32.5101 106.89C31.316 107.385 30.0109 107.217 28.7524 107.241C23.0527 107.239 17.353 107.241 11.6533 107.239C11.0896 107.248 10.5436 107.106 10.0042 106.961L9.96206 106.873C8.42394 106.207 7.36301 104.544 7.50284 102.857C7.53169 101.319 8.58818 100.014 9.88659 99.2907Z" fill="white"/>
<path d="M117.488 112.53L117.597 112.424C121.845 116.649 126.133 120.833 130.388 125.053C131.205 125.869 131.716 126.997 131.716 128.158C131.784 130.399 129.949 132.49 127.74 132.785C126.3 133.01 124.824 132.428 123.834 131.378C119.644 127.208 115.387 123.106 111.232 118.902C113.302 116.763 115.389 114.639 117.488 112.53Z" fill="white"/>
<path d="M61.7034 125.392C65.9182 121.084 70.2285 116.865 74.4167 112.532C76.5919 114.634 78.6982 116.805 80.86 118.918C78.3297 121.67 75.6086 124.242 73.0029 126.924C71.4093 128.519 69.8312 130.133 68.2332 131.724C67.3676 132.594 66.1468 133.109 64.915 133.045C62.6911 132.996 60.6935 131.085 60.5026 128.879C60.365 127.609 60.8267 126.313 61.7034 125.392Z" fill="white"/>
<path d="M9.88225 121.934C11.0786 121.435 12.3859 121.61 13.6465 121.583C19.344 121.586 25.0415 121.583 30.7368 121.583C31.3471 121.559 31.9309 121.748 32.5035 121.93C33.3536 122.416 34.0594 123.124 34.541 123.976C34.976 125.064 34.9805 126.271 34.601 127.376L34.521 127.414C34.1349 128.344 33.3514 129.023 32.508 129.532C31.3116 130.026 30.0043 129.853 28.7437 129.88C23.0484 129.878 17.3509 129.88 11.6534 129.88C11.0408 129.902 10.4549 129.716 9.88003 129.529C9.03218 129.045 8.32859 128.342 7.84696 127.494C7.49184 126.513 7.34313 125.419 7.70491 124.418C8.04006 123.324 8.92342 122.502 9.88225 121.934Z" fill="white"/>
<path d="M9.88212 144.573C11.074 144.078 12.3768 144.247 13.6331 144.223C19.4083 144.229 25.1856 144.211 30.963 144.231C32.3436 144.24 33.5621 145.108 34.3012 146.229L34.4321 146.313C34.4388 146.384 34.4521 146.524 34.4588 146.595C35.0558 147.641 34.9515 148.903 34.6008 150.013L34.5187 150.055C33.8773 151.514 32.348 152.572 30.7322 152.517C24.9615 152.519 19.1885 152.517 13.4178 152.519C12.2326 152.506 11.003 152.641 9.8799 152.168C9.02982 151.687 8.32846 150.979 7.84682 150.133C7.3896 148.999 7.4007 147.734 7.84682 146.597C8.33733 145.758 9.03204 145.05 9.88212 144.573Z" fill="white"/>
<path d="M21.1926 16.747C21.348 16.7448 21.661 16.7403 21.8163 16.7381C65.1856 16.7736 108.555 16.7426 151.922 16.7537C154.79 16.5717 157.768 17.2619 160.043 19.0753C162.121 20.6755 163.603 23.0371 164.123 25.6117C164.398 26.8569 164.351 28.1375 164.351 29.4049C164.351 71.5024 164.353 113.598 164.351 155.695C164.364 158.658 163.122 161.599 160.986 163.652C158.947 165.652 156.112 166.804 153.256 166.793C109.234 166.795 65.2144 166.793 21.1926 166.793C21.2259 162.82 21.1238 158.845 21.2459 154.874C24.3332 154.921 27.4184 154.876 30.5057 154.896C31.4823 154.923 32.4101 154.563 33.3644 154.406L33.3067 154.186C33.3911 154.206 33.5553 154.246 33.6374 154.266C34.037 153.984 34.4476 153.722 34.8782 153.496L34.7183 153.263L35.0735 153.442L35.0757 153.258C35.2599 153.074 35.4419 152.89 35.6217 152.705L35.8126 152.708L35.6261 152.355L35.8592 152.512C36.0878 152.082 36.3497 151.671 36.6293 151.274C36.6094 151.192 36.5694 151.025 36.5517 150.943L36.7736 150.999C36.9023 150.284 37.0999 149.585 37.2286 148.872C37.3906 147.803 36.929 146.784 36.7714 145.741L36.5472 145.803C36.5672 145.718 36.6094 145.552 36.6293 145.468C36.3497 145.068 36.0878 144.657 35.8592 144.229L35.6306 144.384L35.8192 144.018L35.4907 144.094L35.5551 143.792L35.2643 143.838L35.3176 143.548L35.0135 143.623L35.0912 143.288L34.7228 143.481L34.8804 143.246C34.4476 143.017 34.0347 142.755 33.6374 142.476C33.5531 142.498 33.3866 142.54 33.3045 142.562L33.3667 142.336C32.4123 142.178 31.4845 141.819 30.5035 141.845C27.4184 141.865 24.3332 141.821 21.2481 141.87C21.1571 138.66 21.1571 135.442 21.2481 132.233C24.3355 132.281 27.425 132.237 30.5146 132.257C31.489 132.284 32.4123 131.924 33.3644 131.769L33.3067 131.549C33.3911 131.567 33.5575 131.607 33.6397 131.625C34.0392 131.345 34.4498 131.083 34.8782 130.854L34.7183 130.621L35.0735 130.806L35.0757 130.619C35.2577 130.435 35.4419 130.251 35.6217 130.069H35.8103L35.6328 129.716L35.8614 129.876C36.0878 129.443 36.3497 129.032 36.6293 128.635C36.6094 128.553 36.5694 128.388 36.5494 128.306L36.7736 128.357C36.9046 127.645 37.0999 126.946 37.2286 126.233C37.3906 125.164 36.929 124.145 36.7736 123.104L36.5472 123.162C36.5694 123.079 36.6094 122.913 36.6316 122.829C36.3497 122.429 36.0878 122.016 35.857 121.588L35.6195 121.745L35.8237 121.379L35.4907 121.452L35.5551 121.153L35.2666 121.202L35.3154 120.911L35.0113 120.982L35.0912 120.647L34.7228 120.844L34.8782 120.609C34.4476 120.378 34.037 120.116 33.6397 119.839C33.5553 119.859 33.3889 119.901 33.3045 119.921L33.3644 119.697C32.4145 119.539 31.489 119.18 30.5146 119.206C27.4272 119.226 24.3355 119.182 21.2481 119.231C21.1571 116.021 21.1571 112.803 21.2481 109.594C24.3332 109.642 27.4206 109.598 30.5057 109.618C31.4823 109.645 32.4101 109.285 33.3622 109.13L33.309 108.908C33.3911 108.928 33.5575 108.968 33.6397 108.988C34.0392 108.706 34.4498 108.442 34.8782 108.211L34.7228 107.965L35.0757 108.173L35.0735 107.982C35.2577 107.796 35.4397 107.612 35.6239 107.427L35.8103 107.432L35.6283 107.077L35.8592 107.234C36.0878 106.804 36.3497 106.393 36.6293 105.996C36.6094 105.914 36.5694 105.747 36.5494 105.665L36.7736 105.721C36.9023 105.006 37.0999 104.307 37.2308 103.594C37.3884 102.524 36.929 101.506 36.7736 100.465L36.545 100.522C36.5672 100.44 36.6094 100.274 36.6316 100.192C36.3519 99.79 36.0856 99.3794 35.8547 98.9489L35.6084 99.1042L35.8192 98.7535L35.6261 98.758C35.4419 98.5715 35.2555 98.3873 35.0668 98.2053L35.0757 98.0056L34.7228 98.2253L34.8782 97.9723C34.4476 97.7414 34.037 97.4751 33.6374 97.1954C33.5531 97.2176 33.3889 97.2642 33.3045 97.2864L33.3667 97.0578C32.4123 96.9025 31.4823 96.5362 30.5057 96.5673C27.4184 96.5873 24.3332 96.5429 21.2481 96.5917C21.1571 93.3823 21.1571 90.164 21.2459 86.9568C24.3288 87.0034 27.4139 86.9591 30.4968 86.979C31.4779 87.0079 32.4078 86.6483 33.3644 86.4885L33.3067 86.271C33.3911 86.2888 33.5575 86.3265 33.6397 86.3465C34.0392 86.0668 34.4498 85.8049 34.8782 85.5741L34.7206 85.3322L35.0735 85.5319V85.341C35.2577 85.159 35.4397 84.9748 35.6217 84.7906H35.8103L35.6306 84.4377L35.8614 84.5953C36.0878 84.1647 36.3497 83.7541 36.6293 83.3568C36.6094 83.2724 36.5694 83.1082 36.5494 83.0261L36.7714 83.0816C36.929 82.0406 37.3906 81.0196 37.2286 79.9521C37.0999 79.2396 36.9023 78.5404 36.7736 77.828L36.5494 77.8857C36.5783 77.7791 36.636 77.5639 36.6649 77.4573L36.3319 77.3907C36.363 77.2909 36.4296 77.0911 36.4629 76.9912L36.2121 77.0356C36.0989 76.7892 35.9901 76.5451 35.8836 76.2965L35.6239 76.4674L35.8281 76.1012L35.493 76.1811L35.5573 75.8793L35.2688 75.9214L35.311 75.6329L35.0024 75.6973L35.0957 75.3599L34.7228 75.5752L34.8804 75.331C34.4476 75.1024 34.0347 74.8383 33.6352 74.5564C33.5531 74.5808 33.3889 74.6252 33.3045 74.6474L33.3667 74.4188C32.4123 74.2612 31.4867 73.8994 30.5079 73.9283C27.4206 73.9483 24.3332 73.9039 21.2459 73.9505C21.1571 70.7433 21.1571 67.525 21.2459 64.3178C24.3355 64.3644 27.4228 64.32 30.5124 64.34C31.4867 64.3689 32.4123 64.0071 33.3644 63.8495L33.3067 63.6275C33.3911 63.6475 33.5553 63.6897 33.6374 63.7097C34.037 63.43 34.4476 63.1659 34.8782 62.9395L34.7183 62.702L35.0735 62.8884L35.0757 62.702C35.2577 62.5178 35.4419 62.3336 35.6217 62.1493L35.8126 62.1516L35.6283 61.7987L35.8592 61.9562C36.0878 61.5257 36.3497 61.1173 36.6293 60.7178C36.6094 60.6356 36.5694 60.4692 36.5517 60.3848L36.7714 60.4448C36.929 59.4016 37.3906 58.3806 37.2286 57.3108C37.0999 56.5983 36.9023 55.8992 36.7714 55.1867L36.545 55.2444C36.5672 55.1623 36.6094 54.9959 36.6316 54.9137C36.3497 54.5142 36.0878 54.1014 35.8592 53.6708L35.6195 53.8284L35.8259 53.4622L35.493 53.5399L35.5573 53.238L35.2666 53.2824L35.3132 52.9939L35.0069 53.0627L35.0934 52.7275L34.7228 52.9273L34.8782 52.6898C34.4476 52.4634 34.0347 52.1993 33.6374 51.9196C33.5553 51.9418 33.3889 51.984 33.3067 52.0062L33.3644 51.7776C32.4101 51.6222 31.4845 51.2604 30.5057 51.2893C27.4206 51.3092 24.3332 51.2649 21.2481 51.3137C21.1571 48.1043 21.1571 44.886 21.2481 41.6788C24.3355 41.7254 27.4228 41.681 30.5124 41.701C31.4867 41.7276 32.4145 41.3681 33.3667 41.2105L33.3067 40.9885C33.3889 41.0107 33.5553 41.0507 33.6374 41.0706C34.037 40.791 34.4476 40.5269 34.8804 40.2983L34.7206 40.063L35.0912 40.2605L35.0135 39.932L35.311 39.9964L35.271 39.7101L35.5551 39.7522L35.493 39.4504L35.8259 39.5303L35.615 39.1641L35.857 39.3194C36.0878 38.8889 36.3519 38.476 36.6316 38.0765C36.6094 37.9944 36.5672 37.8302 36.5472 37.748L36.7736 37.8035C36.929 36.7626 37.3884 35.7438 37.2286 34.674C37.0999 33.9593 36.9023 33.2602 36.7714 32.5455L36.5472 32.6076C36.5672 32.5255 36.6094 32.3568 36.6316 32.2725C36.3497 31.873 36.0856 31.4624 35.8547 31.0318L35.6128 31.1872L35.8259 30.8209L35.4907 30.8986L35.5551 30.5968L35.2666 30.6456L35.3154 30.3548L35.0091 30.4236L35.0912 30.0863L34.7228 30.2971L34.8804 30.053C34.4476 29.8244 34.037 29.5603 33.6374 29.2806C33.5553 29.3028 33.3889 29.345 33.3067 29.3672L33.3644 29.1385C32.4123 28.9854 31.4867 28.6214 30.5101 28.6503C27.4228 28.6702 24.3332 28.6258 21.2481 28.6747C21.1238 24.7017 21.2259 20.7222 21.1926 16.747ZM121.315 54.7362C117.906 57.9056 114.761 61.3525 111.363 64.5331C109.221 66.6882 107.09 68.8523 104.935 70.9919C103.51 72.2326 102.205 73.6642 101.39 75.3865C99.8122 78.556 99.7168 82.4246 101.222 85.6407C98.0233 88.9677 94.6984 92.1705 91.4602 95.4576C85.7804 101.151 80.0652 106.81 74.4165 112.532C70.2283 116.865 65.918 121.084 61.7032 125.392C60.8265 126.313 60.3648 127.609 60.5024 128.879C60.6933 131.085 62.6909 132.996 64.9148 133.045C66.1466 133.109 67.3674 132.594 68.233 131.724C69.831 130.133 71.4091 128.519 73.0027 126.924C75.6084 124.242 78.3295 121.67 80.8598 118.918C85.8515 113.817 90.9563 108.826 95.9924 103.767C101.04 108.846 106.153 113.86 111.156 118.98L111.232 118.902C115.387 123.106 119.644 127.208 123.834 131.378C124.824 132.428 126.3 133.009 127.74 132.785C129.949 132.49 131.784 130.399 131.715 128.158C131.715 126.997 131.205 125.869 130.388 125.053C126.133 120.833 121.845 116.649 117.597 112.424L117.488 112.53C112.448 107.481 107.376 102.46 102.367 97.3797C104.211 95.6285 105.914 93.7263 107.8 92.024C108.908 92.2193 109.973 92.6521 111.11 92.7142C114.592 93.0716 118.305 92.0417 120.827 89.5426C126.619 83.8628 132.439 78.2142 138.188 72.4856C139.521 71.549 139.581 69.3628 138.203 68.4394C137.577 67.929 136.703 68.0266 135.957 68.111C135.047 68.3995 134.452 69.2163 133.782 69.8444C132.384 71.3359 130.828 72.6632 129.416 74.1414C128.146 75.4686 126.764 76.6805 125.499 78.0122C124.848 78.6536 124.231 79.446 123.286 79.6391C121.896 79.9654 120.389 78.7779 120.456 77.3353C120.378 76.0923 121.526 75.3688 122.269 74.5631C125.374 71.3803 128.615 68.3329 131.707 65.139C132.83 63.9494 132.215 61.8009 130.69 61.2904C129.596 60.9375 128.375 61.2971 127.603 62.1338C125.081 64.7195 122.453 67.1943 119.921 69.7689C118.911 70.6035 118.092 71.6444 117.064 72.4523C115.611 73.5022 113.402 72.2104 113.436 70.4703C113.376 69.2607 114.47 68.5082 115.207 67.7181C116.982 65.867 118.898 64.158 120.684 62.3136C121.976 61.0152 123.259 59.7079 124.575 58.4339C125.399 57.6482 125.501 56.2676 124.884 55.331C124.162 54.1724 122.376 53.9261 121.315 54.7362ZM54.614 71.1472C55.3642 74.6807 57.2442 77.9301 59.8366 80.4337C66.0334 86.5906 72.1837 92.7986 78.4205 98.9156C82.6709 94.6719 86.8946 90.4037 91.1694 86.1889C80.6467 75.5996 70.0263 65.1057 59.4948 54.5275C55.1956 58.7446 53.1891 65.27 54.614 71.1472Z" fill="#FEA038"/>
<path d="M121.315 54.7362C122.376 53.926 124.163 54.1724 124.884 55.331C125.501 56.2676 125.399 57.6482 124.575 58.4339C123.259 59.7079 121.976 61.0151 120.685 62.3136C118.898 64.158 116.982 65.867 115.207 67.7181C114.47 68.5082 113.376 69.2606 113.436 70.4703C113.402 72.2104 115.611 73.5021 117.065 72.4523C118.092 71.6444 118.911 70.6034 119.921 69.7689C122.454 67.1943 125.081 64.7195 127.603 62.1338C128.375 61.297 129.596 60.9375 130.69 61.2904C132.215 61.8009 132.83 63.9493 131.707 65.139C128.615 68.3329 125.374 71.3803 122.269 74.5631C121.526 75.3687 120.378 76.0923 120.456 77.3352C120.389 78.7779 121.896 79.9653 123.286 79.6391C124.231 79.446 124.848 78.6536 125.499 78.0122C126.764 76.6805 128.147 75.4686 129.416 74.1413C130.828 72.6632 132.384 71.3359 133.782 69.8444C134.452 69.2163 135.047 68.3995 135.957 68.1109C136.703 68.0266 137.577 67.9289 138.203 68.4394C139.582 69.3627 139.522 71.549 138.188 72.4856C132.439 78.2142 126.62 83.8628 120.827 89.5425C118.305 92.0417 114.592 93.0716 111.11 92.7142C109.973 92.6521 108.908 92.2193 107.8 92.024C105.914 93.7263 104.211 95.6284 102.367 97.3796C107.376 102.46 112.448 107.481 117.488 112.53C115.389 114.639 113.302 116.763 111.232 118.902L111.156 118.98C106.153 113.86 101.04 108.846 95.9925 103.767C90.9564 108.826 85.8516 113.817 80.8599 118.918C78.6981 116.805 76.5917 114.634 74.4166 112.532C80.0653 106.81 85.7805 101.151 91.4603 95.4575C94.6985 92.1704 98.0234 88.9677 101.222 85.6406C99.7169 82.4246 99.8123 78.556 101.39 75.3865C102.205 73.6642 103.51 72.2326 104.935 70.9919C107.09 68.8522 109.221 66.6882 111.363 64.5331C114.761 61.3525 117.906 57.9056 121.315 54.7362Z" fill="#31333E"/>
<path d="M54.6141 71.1472C53.1892 65.27 55.1956 58.7446 59.4948 54.5275C70.0264 65.1057 80.6468 75.5996 91.1695 86.1889C86.8947 90.4037 82.671 94.6718 78.4206 98.9156C72.1838 92.7986 66.0335 86.5906 59.8366 80.4337C57.2442 77.9301 55.3643 74.6807 54.6141 71.1472Z" fill="#31333E"/>
<path d="M227.348 138H220.7V113.015H235.466V118.432H227.348V123.2H234.833V128.618H227.348V138ZM293.572 138L292.342 133.317H284.224L282.959 138H275.542L283.694 112.912H292.7L300.955 138H293.572ZM290.94 127.78L289.863 123.679C289.613 122.767 289.305 121.588 288.941 120.141C288.587 118.694 288.354 117.657 288.24 117.031C288.137 117.612 287.932 118.569 287.625 119.902C287.328 121.235 286.662 123.861 285.625 127.78H290.94ZM284.634 111.015V110.52C286.389 108.64 287.499 107.426 287.967 106.879C288.445 106.333 288.838 105.843 289.146 105.41H296.46V105.769C295.549 106.498 294.295 107.426 292.7 108.554C291.105 109.682 289.898 110.502 289.077 111.015H284.634ZM353.473 118.193C351.866 118.193 350.613 118.854 349.713 120.175C348.813 121.486 348.363 123.297 348.363 125.61C348.363 130.418 350.191 132.822 353.849 132.822C354.954 132.822 356.025 132.668 357.061 132.36C358.098 132.053 359.141 131.682 360.189 131.25V136.958C358.104 137.88 355.746 138.342 353.114 138.342C349.343 138.342 346.449 137.248 344.432 135.061C342.427 132.873 341.424 129.711 341.424 125.576C341.424 122.989 341.908 120.716 342.877 118.757C343.857 116.797 345.258 115.293 347.081 114.245C348.915 113.186 351.069 112.656 353.541 112.656C356.241 112.656 358.822 113.243 361.283 114.416L359.215 119.731C358.292 119.298 357.369 118.933 356.446 118.637C355.523 118.341 354.532 118.193 353.473 118.193ZM403.752 138V113.015H410.536V138H403.752ZM454.629 138V113.015H461.379V132.548H471.001V138H454.629Z" fill="#31333E"/>
</g>
<defs>
<clipPath id="clip0_328_50">
<rect width="660" height="174" fill="white"/>
</clipPath>
</defs>
</svg>
